<mxfile host="Electron" modified="2023-06-27T21:16:18.838Z" agent="Mozilla/5.0 (Windows NT 10.0; Win64; x64) AppleWebKit/537.36 (KHTML, like Gecko) draw.io/21.5.1 Chrome/112.0.5615.204 Electron/24.6.0 Safari/537.36" etag="2H-eAdvUbPZU-Sgjs9ai" version="21.5.1" type="device" pages="2">
  <diagram name="modelo entidad relacion" id="dw3nExz-eWwLRp0Cqzvz">
    <mxGraphModel dx="1820" dy="844" grid="1" gridSize="10" guides="1" tooltips="1" connect="1" arrows="1" fold="1" page="0" pageScale="1" pageWidth="827" pageHeight="1169" math="0" shadow="0">
      <root>
        <mxCell id="0" />
        <mxCell id="1" parent="0" />
        <mxCell id="mL4hsn0u-9dNpdG5Aic6-1" value="Proveedores" style="whiteSpace=wrap;html=1;align=center;" vertex="1" parent="1">
          <mxGeometry x="170" y="290" width="100" height="40" as="geometry" />
        </mxCell>
        <mxCell id="mL4hsn0u-9dNpdG5Aic6-4" value="" style="endArrow=none;html=1;rounded=0;entryX=0;entryY=0.5;entryDx=0;entryDy=0;" edge="1" parent="1" source="mL4hsn0u-9dNpdG5Aic6-5" target="mL4hsn0u-9dNpdG5Aic6-1">
          <mxGeometry width="50" height="50" relative="1" as="geometry">
            <mxPoint x="120" y="330" as="sourcePoint" />
            <mxPoint x="170" y="330" as="targetPoint" />
          </mxGeometry>
        </mxCell>
        <mxCell id="mL4hsn0u-9dNpdG5Aic6-5" value="" style="ellipse;whiteSpace=wrap;html=1;align=center;" vertex="1" parent="1">
          <mxGeometry x="90" y="300" width="40" height="40" as="geometry" />
        </mxCell>
        <mxCell id="mL4hsn0u-9dNpdG5Aic6-6" value="" style="endArrow=none;html=1;rounded=0;" edge="1" parent="1" source="mL4hsn0u-9dNpdG5Aic6-7" target="mL4hsn0u-9dNpdG5Aic6-5">
          <mxGeometry width="50" height="50" relative="1" as="geometry">
            <mxPoint x="130" y="340" as="sourcePoint" />
            <mxPoint x="180" y="320" as="targetPoint" />
          </mxGeometry>
        </mxCell>
        <mxCell id="mL4hsn0u-9dNpdG5Aic6-7" value="" style="ellipse;whiteSpace=wrap;html=1;align=center;" vertex="1" parent="1">
          <mxGeometry x="150" y="350" width="40" height="40" as="geometry" />
        </mxCell>
        <mxCell id="mL4hsn0u-9dNpdG5Aic6-8" value="" style="endArrow=none;html=1;rounded=0;" edge="1" parent="1" source="mL4hsn0u-9dNpdG5Aic6-9" target="mL4hsn0u-9dNpdG5Aic6-5">
          <mxGeometry width="50" height="50" relative="1" as="geometry">
            <mxPoint x="130" y="430.32" as="sourcePoint" />
            <mxPoint x="136.42229123600032" y="329.9973982019986" as="targetPoint" />
          </mxGeometry>
        </mxCell>
        <mxCell id="mL4hsn0u-9dNpdG5Aic6-9" value="" style="ellipse;whiteSpace=wrap;html=1;align=center;" vertex="1" parent="1">
          <mxGeometry x="110" y="380" width="40" height="40" as="geometry" />
        </mxCell>
        <mxCell id="mL4hsn0u-9dNpdG5Aic6-10" value="" style="endArrow=none;html=1;rounded=0;" edge="1" parent="1" source="mL4hsn0u-9dNpdG5Aic6-11" target="mL4hsn0u-9dNpdG5Aic6-5">
          <mxGeometry width="50" height="50" relative="1" as="geometry">
            <mxPoint x="90" y="470" as="sourcePoint" />
            <mxPoint x="140" y="450" as="targetPoint" />
          </mxGeometry>
        </mxCell>
        <mxCell id="mL4hsn0u-9dNpdG5Aic6-11" value="" style="ellipse;whiteSpace=wrap;html=1;align=center;" vertex="1" parent="1">
          <mxGeometry x="60" y="380" width="40" height="40" as="geometry" />
        </mxCell>
        <mxCell id="mL4hsn0u-9dNpdG5Aic6-12" value="" style="endArrow=none;html=1;rounded=0;" edge="1" parent="1" source="mL4hsn0u-9dNpdG5Aic6-13" target="mL4hsn0u-9dNpdG5Aic6-5">
          <mxGeometry width="50" height="50" relative="1" as="geometry">
            <mxPoint x="40" y="350" as="sourcePoint" />
            <mxPoint x="90" y="330" as="targetPoint" />
          </mxGeometry>
        </mxCell>
        <mxCell id="mL4hsn0u-9dNpdG5Aic6-13" value="" style="ellipse;whiteSpace=wrap;html=1;align=center;" vertex="1" parent="1">
          <mxGeometry x="20" y="350" width="40" height="40" as="geometry" />
        </mxCell>
        <mxCell id="mL4hsn0u-9dNpdG5Aic6-14" value="&lt;font style=&quot;font-size: 10px;&quot;&gt;direccion&lt;/font&gt;" style="text;html=1;align=center;verticalAlign=middle;resizable=0;points=[];autosize=1;strokeColor=none;fillColor=none;" vertex="1" parent="1">
          <mxGeometry x="90" y="268" width="60" height="30" as="geometry" />
        </mxCell>
        <mxCell id="mL4hsn0u-9dNpdG5Aic6-15" value="&lt;font style=&quot;font-size: 10px;&quot;&gt;calle&lt;/font&gt;" style="text;html=1;align=center;verticalAlign=middle;resizable=0;points=[];autosize=1;strokeColor=none;fillColor=none;" vertex="1" parent="1">
          <mxGeometry x="-10" y="370" width="40" height="30" as="geometry" />
        </mxCell>
        <mxCell id="mL4hsn0u-9dNpdG5Aic6-16" value="&lt;font style=&quot;font-size: 10px;&quot;&gt;numero&lt;/font&gt;" style="text;html=1;align=center;verticalAlign=middle;resizable=0;points=[];autosize=1;strokeColor=none;fillColor=none;" vertex="1" parent="1">
          <mxGeometry x="40" y="408" width="60" height="30" as="geometry" />
        </mxCell>
        <mxCell id="mL4hsn0u-9dNpdG5Aic6-17" value="&lt;font style=&quot;font-size: 10px;&quot;&gt;comuna&lt;/font&gt;" style="text;html=1;align=center;verticalAlign=middle;resizable=0;points=[];autosize=1;strokeColor=none;fillColor=none;" vertex="1" parent="1">
          <mxGeometry x="100" y="418" width="60" height="30" as="geometry" />
        </mxCell>
        <mxCell id="mL4hsn0u-9dNpdG5Aic6-18" value="&lt;font style=&quot;font-size: 10px;&quot;&gt;ciudad&lt;/font&gt;" style="text;html=1;align=center;verticalAlign=middle;resizable=0;points=[];autosize=1;strokeColor=none;fillColor=none;" vertex="1" parent="1">
          <mxGeometry x="150" y="380" width="50" height="30" as="geometry" />
        </mxCell>
        <mxCell id="mL4hsn0u-9dNpdG5Aic6-19" value="" style="endArrow=none;html=1;rounded=0;" edge="1" parent="1" source="mL4hsn0u-9dNpdG5Aic6-1" target="mL4hsn0u-9dNpdG5Aic6-20">
          <mxGeometry width="50" height="50" relative="1" as="geometry">
            <mxPoint x="195" y="290" as="sourcePoint" />
            <mxPoint x="170" y="240" as="targetPoint" />
          </mxGeometry>
        </mxCell>
        <mxCell id="mL4hsn0u-9dNpdG5Aic6-20" value="" style="ellipse;whiteSpace=wrap;html=1;align=center;fillColor=#1ba1e2;fontColor=#ffffff;strokeColor=#006EAF;" vertex="1" parent="1">
          <mxGeometry x="140" y="228" width="40" height="40" as="geometry" />
        </mxCell>
        <mxCell id="mL4hsn0u-9dNpdG5Aic6-21" value="" style="endArrow=none;html=1;rounded=0;" edge="1" parent="1" target="mL4hsn0u-9dNpdG5Aic6-22" source="mL4hsn0u-9dNpdG5Aic6-1">
          <mxGeometry width="50" height="50" relative="1" as="geometry">
            <mxPoint x="241" y="268" as="sourcePoint" />
            <mxPoint x="210" y="218" as="targetPoint" />
          </mxGeometry>
        </mxCell>
        <mxCell id="mL4hsn0u-9dNpdG5Aic6-22" value="" style="ellipse;whiteSpace=wrap;html=1;align=center;" vertex="1" parent="1">
          <mxGeometry x="200" y="206" width="40" height="40" as="geometry" />
        </mxCell>
        <mxCell id="mL4hsn0u-9dNpdG5Aic6-23" value="" style="endArrow=none;html=1;rounded=0;" edge="1" parent="1" target="mL4hsn0u-9dNpdG5Aic6-24" source="mL4hsn0u-9dNpdG5Aic6-1">
          <mxGeometry width="50" height="50" relative="1" as="geometry">
            <mxPoint x="321" y="257" as="sourcePoint" />
            <mxPoint x="290" y="207" as="targetPoint" />
          </mxGeometry>
        </mxCell>
        <mxCell id="mL4hsn0u-9dNpdG5Aic6-24" value="" style="ellipse;whiteSpace=wrap;html=1;align=center;" vertex="1" parent="1">
          <mxGeometry x="260" y="230" width="40" height="40" as="geometry" />
        </mxCell>
        <mxCell id="mL4hsn0u-9dNpdG5Aic6-25" value="&lt;font style=&quot;font-size: 10px;&quot;&gt;RUT&lt;/font&gt;" style="text;html=1;align=center;verticalAlign=middle;resizable=0;points=[];autosize=1;strokeColor=none;fillColor=none;" vertex="1" parent="1">
          <mxGeometry x="140" y="206" width="40" height="30" as="geometry" />
        </mxCell>
        <mxCell id="mL4hsn0u-9dNpdG5Aic6-26" value="&lt;font style=&quot;font-size: 10px;&quot;&gt;pagina web&lt;/font&gt;" style="text;html=1;align=center;verticalAlign=middle;resizable=0;points=[];autosize=1;strokeColor=none;fillColor=none;" vertex="1" parent="1">
          <mxGeometry x="190" y="180" width="70" height="30" as="geometry" />
        </mxCell>
        <mxCell id="mL4hsn0u-9dNpdG5Aic6-27" value="" style="endArrow=none;html=1;rounded=0;" edge="1" parent="1" target="mL4hsn0u-9dNpdG5Aic6-28" source="mL4hsn0u-9dNpdG5Aic6-24">
          <mxGeometry width="50" height="50" relative="1" as="geometry">
            <mxPoint x="421" y="230" as="sourcePoint" />
            <mxPoint x="390" y="180" as="targetPoint" />
          </mxGeometry>
        </mxCell>
        <mxCell id="mL4hsn0u-9dNpdG5Aic6-28" value="" style="ellipse;whiteSpace=wrap;html=1;align=center;" vertex="1" parent="1">
          <mxGeometry x="240" y="166" width="40" height="40" as="geometry" />
        </mxCell>
        <mxCell id="mL4hsn0u-9dNpdG5Aic6-29" value="" style="endArrow=none;html=1;rounded=0;" edge="1" parent="1" target="mL4hsn0u-9dNpdG5Aic6-30" source="mL4hsn0u-9dNpdG5Aic6-24">
          <mxGeometry width="50" height="50" relative="1" as="geometry">
            <mxPoint x="361" y="226" as="sourcePoint" />
            <mxPoint x="330" y="176" as="targetPoint" />
          </mxGeometry>
        </mxCell>
        <mxCell id="mL4hsn0u-9dNpdG5Aic6-30" value="" style="ellipse;whiteSpace=wrap;html=1;align=center;" vertex="1" parent="1">
          <mxGeometry x="300" y="166" width="40" height="40" as="geometry" />
        </mxCell>
        <mxCell id="mL4hsn0u-9dNpdG5Aic6-31" value="&lt;font style=&quot;font-size: 10px;&quot;&gt;nombre&lt;/font&gt;" style="text;html=1;align=center;verticalAlign=middle;resizable=0;points=[];autosize=1;strokeColor=none;fillColor=none;" vertex="1" parent="1">
          <mxGeometry x="290" y="230" width="60" height="30" as="geometry" />
        </mxCell>
        <mxCell id="mL4hsn0u-9dNpdG5Aic6-32" value="&lt;font style=&quot;font-size: 10px;&quot;&gt;nombre&lt;/font&gt;" style="text;html=1;align=center;verticalAlign=middle;resizable=0;points=[];autosize=1;strokeColor=none;fillColor=none;" vertex="1" parent="1">
          <mxGeometry x="220" y="138" width="60" height="30" as="geometry" />
        </mxCell>
        <mxCell id="mL4hsn0u-9dNpdG5Aic6-33" value="&lt;font style=&quot;font-size: 10px;&quot;&gt;apellidos&lt;/font&gt;" style="text;html=1;align=center;verticalAlign=middle;resizable=0;points=[];autosize=1;strokeColor=none;fillColor=none;" vertex="1" parent="1">
          <mxGeometry x="300" y="138" width="60" height="30" as="geometry" />
        </mxCell>
        <mxCell id="mL4hsn0u-9dNpdG5Aic6-34" value="negocio" style="shape=rhombus;perimeter=rhombusPerimeter;whiteSpace=wrap;html=1;align=center;" vertex="1" parent="1">
          <mxGeometry x="330" y="280" width="120" height="60" as="geometry" />
        </mxCell>
        <mxCell id="mL4hsn0u-9dNpdG5Aic6-35" value="cliente" style="whiteSpace=wrap;html=1;align=center;" vertex="1" parent="1">
          <mxGeometry x="510" y="290" width="100" height="40" as="geometry" />
        </mxCell>
        <mxCell id="mL4hsn0u-9dNpdG5Aic6-36" value="" style="endArrow=none;html=1;rounded=0;" edge="1" parent="1" source="mL4hsn0u-9dNpdG5Aic6-1" target="mL4hsn0u-9dNpdG5Aic6-34">
          <mxGeometry width="50" height="50" relative="1" as="geometry">
            <mxPoint x="280" y="310" as="sourcePoint" />
            <mxPoint x="330" y="260" as="targetPoint" />
          </mxGeometry>
        </mxCell>
        <mxCell id="mL4hsn0u-9dNpdG5Aic6-38" value="" style="endArrow=none;html=1;rounded=0;" edge="1" parent="1" source="mL4hsn0u-9dNpdG5Aic6-34" target="mL4hsn0u-9dNpdG5Aic6-35">
          <mxGeometry width="50" height="50" relative="1" as="geometry">
            <mxPoint x="460" y="309.5" as="sourcePoint" />
            <mxPoint x="520" y="309.5" as="targetPoint" />
            <Array as="points" />
          </mxGeometry>
        </mxCell>
        <mxCell id="mL4hsn0u-9dNpdG5Aic6-52" value="" style="endArrow=none;html=1;rounded=0;" edge="1" parent="1" source="mL4hsn0u-9dNpdG5Aic6-53" target="mL4hsn0u-9dNpdG5Aic6-35">
          <mxGeometry width="50" height="50" relative="1" as="geometry">
            <mxPoint x="660" y="309" as="sourcePoint" />
            <mxPoint x="610" y="250" as="targetPoint" />
          </mxGeometry>
        </mxCell>
        <mxCell id="mL4hsn0u-9dNpdG5Aic6-53" value="" style="ellipse;whiteSpace=wrap;html=1;align=center;" vertex="1" parent="1">
          <mxGeometry x="640" y="230" width="40" height="40" as="geometry" />
        </mxCell>
        <mxCell id="mL4hsn0u-9dNpdG5Aic6-54" value="&lt;font style=&quot;font-size: 10px;&quot;&gt;direccion&lt;/font&gt;" style="text;html=1;align=center;verticalAlign=middle;resizable=0;points=[];autosize=1;strokeColor=none;fillColor=none;" vertex="1" parent="1">
          <mxGeometry x="580" y="233" width="60" height="30" as="geometry" />
        </mxCell>
        <mxCell id="mL4hsn0u-9dNpdG5Aic6-56" value="" style="endArrow=none;html=1;rounded=0;" edge="1" parent="1" source="mL4hsn0u-9dNpdG5Aic6-57" target="mL4hsn0u-9dNpdG5Aic6-53">
          <mxGeometry width="50" height="50" relative="1" as="geometry">
            <mxPoint x="670" y="196" as="sourcePoint" />
            <mxPoint x="676.9841725309134" y="205.81486795273213" as="targetPoint" />
          </mxGeometry>
        </mxCell>
        <mxCell id="mL4hsn0u-9dNpdG5Aic6-57" value="" style="ellipse;whiteSpace=wrap;html=1;align=center;direction=south;" vertex="1" parent="1">
          <mxGeometry x="630" y="160" width="40" height="40" as="geometry" />
        </mxCell>
        <mxCell id="mL4hsn0u-9dNpdG5Aic6-59" value="" style="endArrow=none;html=1;rounded=0;" edge="1" parent="1" source="mL4hsn0u-9dNpdG5Aic6-60" target="mL4hsn0u-9dNpdG5Aic6-53">
          <mxGeometry width="50" height="50" relative="1" as="geometry">
            <mxPoint x="570" y="212" as="sourcePoint" />
            <mxPoint x="620" y="192" as="targetPoint" />
          </mxGeometry>
        </mxCell>
        <mxCell id="mL4hsn0u-9dNpdG5Aic6-60" value="" style="ellipse;whiteSpace=wrap;html=1;align=center;" vertex="1" parent="1">
          <mxGeometry x="580" y="166" width="40" height="40" as="geometry" />
        </mxCell>
        <mxCell id="mL4hsn0u-9dNpdG5Aic6-63" value="" style="endArrow=none;html=1;rounded=0;" edge="1" parent="1" source="mL4hsn0u-9dNpdG5Aic6-64" target="mL4hsn0u-9dNpdG5Aic6-53">
          <mxGeometry width="50" height="50" relative="1" as="geometry">
            <mxPoint x="710" y="221" as="sourcePoint" />
            <mxPoint x="760" y="201" as="targetPoint" />
          </mxGeometry>
        </mxCell>
        <mxCell id="mL4hsn0u-9dNpdG5Aic6-64" value="" style="ellipse;whiteSpace=wrap;html=1;align=center;" vertex="1" parent="1">
          <mxGeometry x="680" y="166" width="40" height="40" as="geometry" />
        </mxCell>
        <mxCell id="mL4hsn0u-9dNpdG5Aic6-66" value="" style="endArrow=none;html=1;rounded=0;" edge="1" parent="1" source="mL4hsn0u-9dNpdG5Aic6-67" target="mL4hsn0u-9dNpdG5Aic6-53">
          <mxGeometry width="50" height="50" relative="1" as="geometry">
            <mxPoint x="730" y="362" as="sourcePoint" />
            <mxPoint x="780" y="342" as="targetPoint" />
          </mxGeometry>
        </mxCell>
        <mxCell id="mL4hsn0u-9dNpdG5Aic6-67" value="" style="ellipse;whiteSpace=wrap;html=1;align=center;" vertex="1" parent="1">
          <mxGeometry x="710" y="220" width="40" height="40" as="geometry" />
        </mxCell>
        <mxCell id="mL4hsn0u-9dNpdG5Aic6-69" value="&lt;font style=&quot;font-size: 10px;&quot;&gt;calle&lt;/font&gt;" style="text;html=1;align=center;verticalAlign=middle;resizable=0;points=[];autosize=1;strokeColor=none;fillColor=none;" vertex="1" parent="1">
          <mxGeometry x="570" y="138" width="40" height="30" as="geometry" />
        </mxCell>
        <mxCell id="mL4hsn0u-9dNpdG5Aic6-70" value="&lt;font style=&quot;font-size: 10px;&quot;&gt;numero&lt;/font&gt;" style="text;html=1;align=center;verticalAlign=middle;resizable=0;points=[];autosize=1;strokeColor=none;fillColor=none;" vertex="1" parent="1">
          <mxGeometry x="620" y="136" width="60" height="30" as="geometry" />
        </mxCell>
        <mxCell id="mL4hsn0u-9dNpdG5Aic6-71" value="&lt;font style=&quot;font-size: 10px;&quot;&gt;comuna&lt;/font&gt;" style="text;html=1;align=center;verticalAlign=middle;resizable=0;points=[];autosize=1;strokeColor=none;fillColor=none;" vertex="1" parent="1">
          <mxGeometry x="680" y="138" width="60" height="30" as="geometry" />
        </mxCell>
        <mxCell id="mL4hsn0u-9dNpdG5Aic6-72" value="&lt;font style=&quot;font-size: 10px;&quot;&gt;ciudad&lt;/font&gt;" style="text;html=1;align=center;verticalAlign=middle;resizable=0;points=[];autosize=1;strokeColor=none;fillColor=none;" vertex="1" parent="1">
          <mxGeometry x="750" y="220" width="50" height="30" as="geometry" />
        </mxCell>
        <mxCell id="mL4hsn0u-9dNpdG5Aic6-73" value="" style="endArrow=none;html=1;rounded=0;" edge="1" parent="1" source="mL4hsn0u-9dNpdG5Aic6-74" target="mL4hsn0u-9dNpdG5Aic6-35">
          <mxGeometry width="50" height="50" relative="1" as="geometry">
            <mxPoint x="500" y="276" as="sourcePoint" />
            <mxPoint x="550" y="256" as="targetPoint" />
          </mxGeometry>
        </mxCell>
        <mxCell id="mL4hsn0u-9dNpdG5Aic6-74" value="" style="ellipse;whiteSpace=wrap;html=1;align=center;fillColor=#1ba1e2;fontColor=#ffffff;strokeColor=#006EAF;" vertex="1" parent="1">
          <mxGeometry x="520" y="209" width="40" height="40" as="geometry" />
        </mxCell>
        <mxCell id="mL4hsn0u-9dNpdG5Aic6-75" value="&lt;font style=&quot;font-size: 10px;&quot;&gt;RUT&lt;/font&gt;" style="text;html=1;align=center;verticalAlign=middle;resizable=0;points=[];autosize=1;strokeColor=none;fillColor=none;" vertex="1" parent="1">
          <mxGeometry x="520" y="180" width="40" height="30" as="geometry" />
        </mxCell>
        <mxCell id="mL4hsn0u-9dNpdG5Aic6-76" value="" style="endArrow=none;html=1;rounded=0;" edge="1" parent="1" source="mL4hsn0u-9dNpdG5Aic6-77" target="mL4hsn0u-9dNpdG5Aic6-35">
          <mxGeometry width="50" height="50" relative="1" as="geometry">
            <mxPoint x="450" y="268" as="sourcePoint" />
            <mxPoint x="500" y="248" as="targetPoint" />
          </mxGeometry>
        </mxCell>
        <mxCell id="mL4hsn0u-9dNpdG5Aic6-77" value="" style="ellipse;whiteSpace=wrap;html=1;align=center;fillStyle=auto;" vertex="1" parent="1">
          <mxGeometry x="450" y="206" width="40" height="40" as="geometry" />
        </mxCell>
        <mxCell id="mL4hsn0u-9dNpdG5Aic6-79" value="" style="endArrow=none;html=1;rounded=0;" edge="1" parent="1" source="mL4hsn0u-9dNpdG5Aic6-80" target="mL4hsn0u-9dNpdG5Aic6-77">
          <mxGeometry width="50" height="50" relative="1" as="geometry">
            <mxPoint x="480" y="170" as="sourcePoint" />
            <mxPoint x="530" y="150" as="targetPoint" />
          </mxGeometry>
        </mxCell>
        <mxCell id="mL4hsn0u-9dNpdG5Aic6-80" value="" style="ellipse;whiteSpace=wrap;html=1;align=center;" vertex="1" parent="1">
          <mxGeometry x="390" y="166" width="40" height="40" as="geometry" />
        </mxCell>
        <mxCell id="mL4hsn0u-9dNpdG5Aic6-82" value="" style="endArrow=none;html=1;rounded=0;" edge="1" parent="1" source="mL4hsn0u-9dNpdG5Aic6-83" target="mL4hsn0u-9dNpdG5Aic6-77">
          <mxGeometry width="50" height="50" relative="1" as="geometry">
            <mxPoint x="510" y="126" as="sourcePoint" />
            <mxPoint x="560" y="106" as="targetPoint" />
          </mxGeometry>
        </mxCell>
        <mxCell id="mL4hsn0u-9dNpdG5Aic6-83" value="" style="ellipse;whiteSpace=wrap;html=1;align=center;" vertex="1" parent="1">
          <mxGeometry x="470" y="150" width="40" height="40" as="geometry" />
        </mxCell>
        <mxCell id="mL4hsn0u-9dNpdG5Aic6-84" value="&lt;font style=&quot;font-size: 10px;&quot;&gt;nombre&lt;/font&gt;" style="text;html=1;align=center;verticalAlign=middle;resizable=0;points=[];autosize=1;strokeColor=none;fillColor=none;" vertex="1" parent="1">
          <mxGeometry x="400" y="225" width="60" height="30" as="geometry" />
        </mxCell>
        <mxCell id="mL4hsn0u-9dNpdG5Aic6-85" value="&lt;font style=&quot;font-size: 10px;&quot;&gt;nombres&lt;/font&gt;" style="text;html=1;align=center;verticalAlign=middle;resizable=0;points=[];autosize=1;strokeColor=none;fillColor=none;" vertex="1" parent="1">
          <mxGeometry x="370" y="138" width="60" height="30" as="geometry" />
        </mxCell>
        <mxCell id="mL4hsn0u-9dNpdG5Aic6-86" value="&lt;font style=&quot;font-size: 10px;&quot;&gt;apellidos&lt;/font&gt;" style="text;html=1;align=center;verticalAlign=middle;resizable=0;points=[];autosize=1;strokeColor=none;fillColor=none;" vertex="1" parent="1">
          <mxGeometry x="460" y="120" width="60" height="30" as="geometry" />
        </mxCell>
        <mxCell id="mL4hsn0u-9dNpdG5Aic6-87" value="&lt;font style=&quot;font-size: 10px;&quot;&gt;N:M&lt;/font&gt;" style="text;html=1;align=center;verticalAlign=middle;resizable=0;points=[];autosize=1;strokeColor=none;fillColor=none;" vertex="1" parent="1">
          <mxGeometry x="370" y="258" width="40" height="30" as="geometry" />
        </mxCell>
        <mxCell id="mL4hsn0u-9dNpdG5Aic6-88" value="" style="endArrow=none;html=1;rounded=0;" edge="1" parent="1" source="mL4hsn0u-9dNpdG5Aic6-89" target="mL4hsn0u-9dNpdG5Aic6-35">
          <mxGeometry width="50" height="50" relative="1" as="geometry">
            <mxPoint x="560" y="350" as="sourcePoint" />
            <mxPoint x="540" y="379" as="targetPoint" />
            <Array as="points" />
          </mxGeometry>
        </mxCell>
        <mxCell id="mL4hsn0u-9dNpdG5Aic6-89" value="visualiza" style="shape=rhombus;perimeter=rhombusPerimeter;whiteSpace=wrap;html=1;align=center;" vertex="1" parent="1">
          <mxGeometry x="500" y="410" width="120" height="60" as="geometry" />
        </mxCell>
        <mxCell id="mL4hsn0u-9dNpdG5Aic6-91" value="" style="endArrow=none;html=1;rounded=0;entryX=0;entryY=0.5;entryDx=0;entryDy=0;" edge="1" parent="1" target="mL4hsn0u-9dNpdG5Aic6-89">
          <mxGeometry width="50" height="50" relative="1" as="geometry">
            <mxPoint x="320" y="440" as="sourcePoint" />
            <mxPoint x="461" y="430" as="targetPoint" />
            <Array as="points" />
          </mxGeometry>
        </mxCell>
        <mxCell id="mL4hsn0u-9dNpdG5Aic6-92" value="" style="endArrow=none;html=1;rounded=0;" edge="1" parent="1">
          <mxGeometry width="50" height="50" relative="1" as="geometry">
            <mxPoint x="320" y="520" as="sourcePoint" />
            <mxPoint x="320" y="438" as="targetPoint" />
          </mxGeometry>
        </mxCell>
        <mxCell id="mL4hsn0u-9dNpdG5Aic6-93" value="producto" style="whiteSpace=wrap;html=1;align=center;" vertex="1" parent="1">
          <mxGeometry x="270" y="520" width="100" height="40" as="geometry" />
        </mxCell>
        <mxCell id="mL4hsn0u-9dNpdG5Aic6-94" value="" style="ellipse;whiteSpace=wrap;html=1;align=center;fillColor=#1ba1e2;fontColor=#ffffff;strokeColor=#006EAF;" vertex="1" parent="1">
          <mxGeometry x="300" y="590" width="40" height="40" as="geometry" />
        </mxCell>
        <mxCell id="mL4hsn0u-9dNpdG5Aic6-95" value="" style="endArrow=none;html=1;rounded=0;" edge="1" parent="1" source="mL4hsn0u-9dNpdG5Aic6-94">
          <mxGeometry width="50" height="50" relative="1" as="geometry">
            <mxPoint x="319.5" y="604" as="sourcePoint" />
            <mxPoint x="319.5" y="560" as="targetPoint" />
          </mxGeometry>
        </mxCell>
        <mxCell id="mL4hsn0u-9dNpdG5Aic6-96" value="" style="ellipse;whiteSpace=wrap;html=1;align=center;" vertex="1" parent="1">
          <mxGeometry x="230" y="590" width="40" height="40" as="geometry" />
        </mxCell>
        <mxCell id="mL4hsn0u-9dNpdG5Aic6-97" value="" style="endArrow=none;html=1;rounded=0;" edge="1" parent="1" source="mL4hsn0u-9dNpdG5Aic6-96" target="mL4hsn0u-9dNpdG5Aic6-93">
          <mxGeometry width="50" height="50" relative="1" as="geometry">
            <mxPoint x="269.5" y="619" as="sourcePoint" />
            <mxPoint x="269.5" y="575" as="targetPoint" />
          </mxGeometry>
        </mxCell>
        <mxCell id="mL4hsn0u-9dNpdG5Aic6-98" value="" style="ellipse;whiteSpace=wrap;html=1;align=center;" vertex="1" parent="1">
          <mxGeometry x="360" y="590" width="40" height="40" as="geometry" />
        </mxCell>
        <mxCell id="mL4hsn0u-9dNpdG5Aic6-99" value="" style="endArrow=none;html=1;rounded=0;" edge="1" parent="1" source="mL4hsn0u-9dNpdG5Aic6-98" target="mL4hsn0u-9dNpdG5Aic6-93">
          <mxGeometry width="50" height="50" relative="1" as="geometry">
            <mxPoint x="279.5" y="629" as="sourcePoint" />
            <mxPoint x="310" y="570" as="targetPoint" />
          </mxGeometry>
        </mxCell>
        <mxCell id="mL4hsn0u-9dNpdG5Aic6-100" value="&lt;font style=&quot;font-size: 10px;&quot;&gt;ID&lt;/font&gt;" style="text;html=1;align=center;verticalAlign=middle;resizable=0;points=[];autosize=1;strokeColor=none;fillColor=none;" vertex="1" parent="1">
          <mxGeometry x="305" y="630" width="30" height="30" as="geometry" />
        </mxCell>
        <mxCell id="mL4hsn0u-9dNpdG5Aic6-101" value="&lt;font style=&quot;font-size: 10px;&quot;&gt;&amp;nbsp;nombre&lt;/font&gt;" style="text;html=1;align=center;verticalAlign=middle;resizable=0;points=[];autosize=1;strokeColor=none;fillColor=none;" vertex="1" parent="1">
          <mxGeometry x="180" y="618" width="60" height="30" as="geometry" />
        </mxCell>
        <mxCell id="mL4hsn0u-9dNpdG5Aic6-102" value="&lt;font style=&quot;font-size: 10px;&quot;&gt;precio actual&lt;/font&gt;" style="text;html=1;align=center;verticalAlign=middle;resizable=0;points=[];autosize=1;strokeColor=none;fillColor=none;" vertex="1" parent="1">
          <mxGeometry x="360" y="628" width="80" height="30" as="geometry" />
        </mxCell>
        <mxCell id="mL4hsn0u-9dNpdG5Aic6-103" value="" style="ellipse;whiteSpace=wrap;html=1;align=center;" vertex="1" parent="1">
          <mxGeometry x="400" y="480" width="40" height="40" as="geometry" />
        </mxCell>
        <mxCell id="mL4hsn0u-9dNpdG5Aic6-104" value="" style="endArrow=none;html=1;rounded=0;" edge="1" parent="1" source="mL4hsn0u-9dNpdG5Aic6-103" target="mL4hsn0u-9dNpdG5Aic6-93">
          <mxGeometry width="50" height="50" relative="1" as="geometry">
            <mxPoint x="339.5" y="549" as="sourcePoint" />
            <mxPoint x="360" y="528.7692307692307" as="targetPoint" />
          </mxGeometry>
        </mxCell>
        <mxCell id="mL4hsn0u-9dNpdG5Aic6-106" value="" style="ellipse;whiteSpace=wrap;html=1;align=center;" vertex="1" parent="1">
          <mxGeometry x="340" y="470" width="40" height="40" as="geometry" />
        </mxCell>
        <mxCell id="mL4hsn0u-9dNpdG5Aic6-107" value="" style="endArrow=none;html=1;rounded=0;entryX=1;entryY=0;entryDx=0;entryDy=0;" edge="1" parent="1" source="mL4hsn0u-9dNpdG5Aic6-106" target="mL4hsn0u-9dNpdG5Aic6-93">
          <mxGeometry width="50" height="50" relative="1" as="geometry">
            <mxPoint x="289.5" y="517" as="sourcePoint" />
            <mxPoint x="347" y="448" as="targetPoint" />
          </mxGeometry>
        </mxCell>
        <mxCell id="mL4hsn0u-9dNpdG5Aic6-109" value="&lt;font style=&quot;font-size: 10px;&quot;&gt;stock&lt;/font&gt;" style="text;html=1;align=center;verticalAlign=middle;resizable=0;points=[];autosize=1;strokeColor=none;fillColor=none;" vertex="1" parent="1">
          <mxGeometry x="335" y="448" width="50" height="30" as="geometry" />
        </mxCell>
        <mxCell id="mL4hsn0u-9dNpdG5Aic6-110" value="&lt;font style=&quot;font-size: 10px;&quot;&gt;nombre&lt;br&gt;proveedor&lt;/font&gt;" style="text;html=1;align=center;verticalAlign=middle;resizable=0;points=[];autosize=1;strokeColor=none;fillColor=none;" vertex="1" parent="1">
          <mxGeometry x="385" y="443" width="70" height="40" as="geometry" />
        </mxCell>
        <mxCell id="mL4hsn0u-9dNpdG5Aic6-111" value="pertenece" style="shape=rhombus;perimeter=rhombusPerimeter;whiteSpace=wrap;html=1;align=center;" vertex="1" parent="1">
          <mxGeometry x="470" y="510" width="120" height="60" as="geometry" />
        </mxCell>
        <mxCell id="mL4hsn0u-9dNpdG5Aic6-112" value="" style="endArrow=none;html=1;rounded=0;" edge="1" parent="1" source="mL4hsn0u-9dNpdG5Aic6-93" target="mL4hsn0u-9dNpdG5Aic6-111">
          <mxGeometry width="50" height="50" relative="1" as="geometry">
            <mxPoint x="370" y="539.5" as="sourcePoint" />
            <mxPoint x="430" y="539.5" as="targetPoint" />
            <Array as="points" />
          </mxGeometry>
        </mxCell>
        <mxCell id="mL4hsn0u-9dNpdG5Aic6-113" value="" style="endArrow=none;html=1;rounded=0;" edge="1" parent="1" source="mL4hsn0u-9dNpdG5Aic6-111" target="mL4hsn0u-9dNpdG5Aic6-114">
          <mxGeometry width="50" height="50" relative="1" as="geometry">
            <mxPoint x="600" y="539.5" as="sourcePoint" />
            <mxPoint x="680" y="540" as="targetPoint" />
            <Array as="points" />
          </mxGeometry>
        </mxCell>
        <mxCell id="mL4hsn0u-9dNpdG5Aic6-114" value="categoria" style="whiteSpace=wrap;html=1;align=center;" vertex="1" parent="1">
          <mxGeometry x="680" y="520" width="100" height="40" as="geometry" />
        </mxCell>
        <mxCell id="mL4hsn0u-9dNpdG5Aic6-115" value="" style="ellipse;whiteSpace=wrap;html=1;align=center;fillColor=#1ba1e2;fontColor=#ffffff;strokeColor=#006EAF;" vertex="1" parent="1">
          <mxGeometry x="640" y="590" width="40" height="40" as="geometry" />
        </mxCell>
        <mxCell id="mL4hsn0u-9dNpdG5Aic6-118" value="" style="endArrow=none;html=1;rounded=0;" edge="1" parent="1" source="mL4hsn0u-9dNpdG5Aic6-115" target="mL4hsn0u-9dNpdG5Aic6-114">
          <mxGeometry width="50" height="50" relative="1" as="geometry">
            <mxPoint x="669" y="606" as="sourcePoint" />
            <mxPoint x="705" y="570" as="targetPoint" />
          </mxGeometry>
        </mxCell>
        <mxCell id="mL4hsn0u-9dNpdG5Aic6-119" value="&lt;font style=&quot;font-size: 10px;&quot;&gt;ID&lt;/font&gt;" style="text;html=1;align=center;verticalAlign=middle;resizable=0;points=[];autosize=1;strokeColor=none;fillColor=none;" vertex="1" parent="1">
          <mxGeometry x="625" y="628" width="30" height="30" as="geometry" />
        </mxCell>
        <mxCell id="mL4hsn0u-9dNpdG5Aic6-124" value="" style="ellipse;whiteSpace=wrap;html=1;align=center;" vertex="1" parent="1">
          <mxGeometry x="710" y="590" width="40" height="40" as="geometry" />
        </mxCell>
        <mxCell id="mL4hsn0u-9dNpdG5Aic6-125" value="" style="endArrow=none;html=1;rounded=0;" edge="1" parent="1" source="mL4hsn0u-9dNpdG5Aic6-124" target="mL4hsn0u-9dNpdG5Aic6-114">
          <mxGeometry width="50" height="50" relative="1" as="geometry">
            <mxPoint x="672.5" y="647" as="sourcePoint" />
            <mxPoint x="730" y="578" as="targetPoint" />
          </mxGeometry>
        </mxCell>
        <mxCell id="mL4hsn0u-9dNpdG5Aic6-126" value="&lt;font style=&quot;font-size: 10px;&quot;&gt;nombre&lt;/font&gt;" style="text;html=1;align=center;verticalAlign=middle;resizable=0;points=[];autosize=1;strokeColor=none;fillColor=none;" vertex="1" parent="1">
          <mxGeometry x="700" y="628" width="60" height="30" as="geometry" />
        </mxCell>
        <mxCell id="mL4hsn0u-9dNpdG5Aic6-127" value="" style="ellipse;whiteSpace=wrap;html=1;align=center;" vertex="1" parent="1">
          <mxGeometry x="770" y="588" width="40" height="40" as="geometry" />
        </mxCell>
        <mxCell id="mL4hsn0u-9dNpdG5Aic6-128" value="" style="endArrow=none;html=1;rounded=0;" edge="1" parent="1" source="mL4hsn0u-9dNpdG5Aic6-127" target="mL4hsn0u-9dNpdG5Aic6-114">
          <mxGeometry width="50" height="50" relative="1" as="geometry">
            <mxPoint x="722.5" y="657" as="sourcePoint" />
            <mxPoint x="780" y="570" as="targetPoint" />
          </mxGeometry>
        </mxCell>
        <mxCell id="mL4hsn0u-9dNpdG5Aic6-129" value="&lt;font style=&quot;font-size: 10px;&quot;&gt;descripcion&lt;/font&gt;" style="text;html=1;align=center;verticalAlign=middle;resizable=0;points=[];autosize=1;strokeColor=none;fillColor=none;" vertex="1" parent="1">
          <mxGeometry x="770" y="628" width="70" height="30" as="geometry" />
        </mxCell>
        <mxCell id="mL4hsn0u-9dNpdG5Aic6-130" value="" style="endArrow=none;html=1;rounded=0;" edge="1" parent="1" source="mL4hsn0u-9dNpdG5Aic6-131" target="mL4hsn0u-9dNpdG5Aic6-93">
          <mxGeometry width="50" height="50" relative="1" as="geometry">
            <mxPoint x="150" y="539.5" as="sourcePoint" />
            <mxPoint x="250" y="539.5" as="targetPoint" />
            <Array as="points" />
          </mxGeometry>
        </mxCell>
        <mxCell id="mL4hsn0u-9dNpdG5Aic6-131" value="posee" style="shape=rhombus;perimeter=rhombusPerimeter;whiteSpace=wrap;html=1;align=center;" vertex="1" parent="1">
          <mxGeometry x="60" y="510" width="120" height="60" as="geometry" />
        </mxCell>
        <mxCell id="mL4hsn0u-9dNpdG5Aic6-132" value="ventas" style="whiteSpace=wrap;html=1;align=center;" vertex="1" parent="1">
          <mxGeometry x="-120" y="520" width="100" height="40" as="geometry" />
        </mxCell>
        <mxCell id="mL4hsn0u-9dNpdG5Aic6-133" value="" style="endArrow=none;html=1;rounded=0;" edge="1" parent="1" source="mL4hsn0u-9dNpdG5Aic6-132" target="mL4hsn0u-9dNpdG5Aic6-131">
          <mxGeometry width="50" height="50" relative="1" as="geometry">
            <mxPoint x="-30" y="539.5" as="sourcePoint" />
            <mxPoint x="60" y="539.5" as="targetPoint" />
            <Array as="points" />
          </mxGeometry>
        </mxCell>
        <mxCell id="mL4hsn0u-9dNpdG5Aic6-134" value="" style="ellipse;whiteSpace=wrap;html=1;align=center;" vertex="1" parent="1">
          <mxGeometry x="-20" y="590" width="40" height="40" as="geometry" />
        </mxCell>
        <mxCell id="mL4hsn0u-9dNpdG5Aic6-135" value="" style="endArrow=none;html=1;rounded=0;" edge="1" parent="1" source="mL4hsn0u-9dNpdG5Aic6-134" target="mL4hsn0u-9dNpdG5Aic6-132">
          <mxGeometry width="50" height="50" relative="1" as="geometry">
            <mxPoint x="-97.5" y="687" as="sourcePoint" />
            <mxPoint x="-72" y="590" as="targetPoint" />
          </mxGeometry>
        </mxCell>
        <mxCell id="mL4hsn0u-9dNpdG5Aic6-137" value="fecha" style="text;html=1;align=center;verticalAlign=middle;resizable=0;points=[];autosize=1;strokeColor=none;fillColor=none;" vertex="1" parent="1">
          <mxGeometry x="20" y="590" width="50" height="30" as="geometry" />
        </mxCell>
        <mxCell id="mL4hsn0u-9dNpdG5Aic6-138" value="" style="ellipse;whiteSpace=wrap;html=1;align=center;" vertex="1" parent="1">
          <mxGeometry x="40" y="640" width="40" height="40" as="geometry" />
        </mxCell>
        <mxCell id="mL4hsn0u-9dNpdG5Aic6-139" value="" style="endArrow=none;html=1;rounded=0;" edge="1" parent="1" source="mL4hsn0u-9dNpdG5Aic6-138" target="mL4hsn0u-9dNpdG5Aic6-134">
          <mxGeometry width="50" height="50" relative="1" as="geometry">
            <mxPoint x="-27.5" y="767" as="sourcePoint" />
            <mxPoint x="20" y="640" as="targetPoint" />
          </mxGeometry>
        </mxCell>
        <mxCell id="mL4hsn0u-9dNpdG5Aic6-140" value="" style="ellipse;whiteSpace=wrap;html=1;align=center;" vertex="1" parent="1">
          <mxGeometry y="660" width="40" height="40" as="geometry" />
        </mxCell>
        <mxCell id="mL4hsn0u-9dNpdG5Aic6-141" value="" style="endArrow=none;html=1;rounded=0;" edge="1" parent="1" source="mL4hsn0u-9dNpdG5Aic6-140" target="mL4hsn0u-9dNpdG5Aic6-134">
          <mxGeometry width="50" height="50" relative="1" as="geometry">
            <mxPoint x="-72.5" y="775" as="sourcePoint" />
            <mxPoint x="-25" y="648" as="targetPoint" />
          </mxGeometry>
        </mxCell>
        <mxCell id="mL4hsn0u-9dNpdG5Aic6-142" value="" style="ellipse;whiteSpace=wrap;html=1;align=center;" vertex="1" parent="1">
          <mxGeometry x="-50" y="658" width="40" height="40" as="geometry" />
        </mxCell>
        <mxCell id="mL4hsn0u-9dNpdG5Aic6-143" value="" style="endArrow=none;html=1;rounded=0;" edge="1" parent="1" source="mL4hsn0u-9dNpdG5Aic6-142" target="mL4hsn0u-9dNpdG5Aic6-134">
          <mxGeometry width="50" height="50" relative="1" as="geometry">
            <mxPoint x="-137.5" y="772" as="sourcePoint" />
            <mxPoint x="-90" y="645" as="targetPoint" />
          </mxGeometry>
        </mxCell>
        <mxCell id="mL4hsn0u-9dNpdG5Aic6-144" value="" style="ellipse;whiteSpace=wrap;html=1;align=center;" vertex="1" parent="1">
          <mxGeometry x="-90" y="640" width="40" height="40" as="geometry" />
        </mxCell>
        <mxCell id="mL4hsn0u-9dNpdG5Aic6-145" value="" style="endArrow=none;html=1;rounded=0;" edge="1" parent="1" source="mL4hsn0u-9dNpdG5Aic6-144" target="mL4hsn0u-9dNpdG5Aic6-134">
          <mxGeometry width="50" height="50" relative="1" as="geometry">
            <mxPoint x="-177.5" y="747" as="sourcePoint" />
            <mxPoint x="-130" y="620" as="targetPoint" />
          </mxGeometry>
        </mxCell>
        <mxCell id="mL4hsn0u-9dNpdG5Aic6-146" value="&lt;font style=&quot;font-size: 10px;&quot;&gt;dia&lt;/font&gt;" style="text;html=1;align=center;verticalAlign=middle;resizable=0;points=[];autosize=1;strokeColor=none;fillColor=none;" vertex="1" parent="1">
          <mxGeometry x="-110" y="668" width="40" height="30" as="geometry" />
        </mxCell>
        <mxCell id="mL4hsn0u-9dNpdG5Aic6-147" value="&lt;font style=&quot;font-size: 10px;&quot;&gt;mes&lt;/font&gt;" style="text;html=1;align=center;verticalAlign=middle;resizable=0;points=[];autosize=1;strokeColor=none;fillColor=none;" vertex="1" parent="1">
          <mxGeometry x="-60" y="688" width="40" height="30" as="geometry" />
        </mxCell>
        <mxCell id="mL4hsn0u-9dNpdG5Aic6-148" value="&lt;font style=&quot;font-size: 10px;&quot;&gt;año&lt;/font&gt;" style="text;html=1;align=center;verticalAlign=middle;resizable=0;points=[];autosize=1;strokeColor=none;fillColor=none;" vertex="1" parent="1">
          <mxGeometry y="698" width="40" height="30" as="geometry" />
        </mxCell>
        <mxCell id="mL4hsn0u-9dNpdG5Aic6-149" value="&lt;font style=&quot;font-size: 10px;&quot;&gt;hora&lt;/font&gt;" style="text;html=1;align=center;verticalAlign=middle;resizable=0;points=[];autosize=1;strokeColor=none;fillColor=none;" vertex="1" parent="1">
          <mxGeometry x="60" y="678" width="40" height="30" as="geometry" />
        </mxCell>
        <mxCell id="mL4hsn0u-9dNpdG5Aic6-150" value="" style="ellipse;whiteSpace=wrap;html=1;align=center;" vertex="1" parent="1">
          <mxGeometry x="-170" y="608" width="40" height="40" as="geometry" />
        </mxCell>
        <mxCell id="mL4hsn0u-9dNpdG5Aic6-151" value="" style="endArrow=none;html=1;rounded=0;" edge="1" parent="1" source="mL4hsn0u-9dNpdG5Aic6-150" target="mL4hsn0u-9dNpdG5Aic6-132">
          <mxGeometry width="50" height="50" relative="1" as="geometry">
            <mxPoint x="-237.5" y="725" as="sourcePoint" />
            <mxPoint x="-190" y="598" as="targetPoint" />
          </mxGeometry>
        </mxCell>
        <mxCell id="mL4hsn0u-9dNpdG5Aic6-152" value="&lt;font style=&quot;font-size: 10px;&quot;&gt;nombre&amp;nbsp;&lt;br&gt;producto&lt;/font&gt;" style="text;html=1;align=center;verticalAlign=middle;resizable=0;points=[];autosize=1;strokeColor=none;fillColor=none;" vertex="1" parent="1">
          <mxGeometry x="-230" y="643" width="60" height="40" as="geometry" />
        </mxCell>
        <mxCell id="mL4hsn0u-9dNpdG5Aic6-153" value="" style="ellipse;whiteSpace=wrap;html=1;align=center;fillColor=#1ba1e2;fontColor=#ffffff;strokeColor=#006EAF;" vertex="1" parent="1">
          <mxGeometry x="-210" y="568" width="40" height="40" as="geometry" />
        </mxCell>
        <mxCell id="mL4hsn0u-9dNpdG5Aic6-154" value="" style="endArrow=none;html=1;rounded=0;" edge="1" parent="1" source="mL4hsn0u-9dNpdG5Aic6-153" target="mL4hsn0u-9dNpdG5Aic6-132">
          <mxGeometry width="50" height="50" relative="1" as="geometry">
            <mxPoint x="-287.5" y="665" as="sourcePoint" />
            <mxPoint x="-240" y="538" as="targetPoint" />
          </mxGeometry>
        </mxCell>
        <mxCell id="mL4hsn0u-9dNpdG5Aic6-155" value="&lt;font style=&quot;font-size: 10px;&quot;&gt;ID&lt;/font&gt;" style="text;html=1;align=center;verticalAlign=middle;resizable=0;points=[];autosize=1;strokeColor=none;fillColor=none;" vertex="1" parent="1">
          <mxGeometry x="-240" y="573" width="30" height="30" as="geometry" />
        </mxCell>
        <mxCell id="mL4hsn0u-9dNpdG5Aic6-156" value="1:N" style="text;html=1;align=center;verticalAlign=middle;resizable=0;points=[];autosize=1;strokeColor=none;fillColor=none;" vertex="1" parent="1">
          <mxGeometry x="620" y="425" width="40" height="30" as="geometry" />
        </mxCell>
        <mxCell id="mL4hsn0u-9dNpdG5Aic6-157" value="1:N" style="text;html=1;align=center;verticalAlign=middle;resizable=0;points=[];autosize=1;strokeColor=none;fillColor=none;" vertex="1" parent="1">
          <mxGeometry x="510" y="478" width="40" height="30" as="geometry" />
        </mxCell>
        <mxCell id="mL4hsn0u-9dNpdG5Aic6-164" value="N:M" style="text;html=1;align=center;verticalAlign=middle;resizable=0;points=[];autosize=1;strokeColor=none;fillColor=none;" vertex="1" parent="1">
          <mxGeometry x="95" y="478" width="50" height="30" as="geometry" />
        </mxCell>
      </root>
    </mxGraphModel>
  </diagram>
  <diagram id="F2OerWuW4_wrj1RppD1N" name="modelorelacional">
    <mxGraphModel dx="2220" dy="1244" grid="1" gridSize="10" guides="1" tooltips="1" connect="1" arrows="1" fold="1" page="0" pageScale="1" pageWidth="827" pageHeight="1169" math="0" shadow="0">
      <root>
        <mxCell id="0" />
        <mxCell id="1" parent="0" />
        <mxCell id="ZOlKewxKOMbtdBb3kmYN-1" value="Proveedores" style="shape=table;startSize=30;container=1;collapsible=1;childLayout=tableLayout;fixedRows=1;rowLines=0;fontStyle=1;align=center;resizeLast=1;html=1;" vertex="1" parent="1">
          <mxGeometry x="-470" y="-90" width="180" height="180" as="geometry" />
        </mxCell>
        <mxCell id="ZOlKewxKOMbtdBb3kmYN-2" value="" style="shape=tableRow;horizontal=0;startSize=0;swimlaneHead=0;swimlaneBody=0;fillColor=none;collapsible=0;dropTarget=0;points=[[0,0.5],[1,0.5]];portConstraint=eastwest;top=0;left=0;right=0;bottom=1;" vertex="1" parent="ZOlKewxKOMbtdBb3kmYN-1">
          <mxGeometry y="30" width="180" height="30" as="geometry" />
        </mxCell>
        <mxCell id="ZOlKewxKOMbtdBb3kmYN-3" value="PK" style="shape=partialRectangle;connectable=0;fillColor=none;top=0;left=0;bottom=0;right=0;fontStyle=1;overflow=hidden;whiteSpace=wrap;html=1;" vertex="1" parent="ZOlKewxKOMbtdBb3kmYN-2">
          <mxGeometry width="30" height="30" as="geometry">
            <mxRectangle width="30" height="30" as="alternateBounds" />
          </mxGeometry>
        </mxCell>
        <mxCell id="ZOlKewxKOMbtdBb3kmYN-4" value="RUT_proveedores" style="shape=partialRectangle;connectable=0;fillColor=none;top=0;left=0;bottom=0;right=0;align=left;spacingLeft=6;fontStyle=5;overflow=hidden;whiteSpace=wrap;html=1;" vertex="1" parent="ZOlKewxKOMbtdBb3kmYN-2">
          <mxGeometry x="30" width="150" height="30" as="geometry">
            <mxRectangle width="150" height="30" as="alternateBounds" />
          </mxGeometry>
        </mxCell>
        <mxCell id="ZOlKewxKOMbtdBb3kmYN-5" value="" style="shape=tableRow;horizontal=0;startSize=0;swimlaneHead=0;swimlaneBody=0;fillColor=none;collapsible=0;dropTarget=0;points=[[0,0.5],[1,0.5]];portConstraint=eastwest;top=0;left=0;right=0;bottom=0;" vertex="1" parent="ZOlKewxKOMbtdBb3kmYN-1">
          <mxGeometry y="60" width="180" height="30" as="geometry" />
        </mxCell>
        <mxCell id="ZOlKewxKOMbtdBb3kmYN-6" value="" style="shape=partialRectangle;connectable=0;fillColor=none;top=0;left=0;bottom=0;right=0;editable=1;overflow=hidden;whiteSpace=wrap;html=1;" vertex="1" parent="ZOlKewxKOMbtdBb3kmYN-5">
          <mxGeometry width="30" height="30" as="geometry">
            <mxRectangle width="30" height="30" as="alternateBounds" />
          </mxGeometry>
        </mxCell>
        <mxCell id="ZOlKewxKOMbtdBb3kmYN-7" value="dir_calle" style="shape=partialRectangle;connectable=0;fillColor=none;top=0;left=0;bottom=0;right=0;align=left;spacingLeft=6;overflow=hidden;whiteSpace=wrap;html=1;" vertex="1" parent="ZOlKewxKOMbtdBb3kmYN-5">
          <mxGeometry x="30" width="150" height="30" as="geometry">
            <mxRectangle width="150" height="30" as="alternateBounds" />
          </mxGeometry>
        </mxCell>
        <mxCell id="ZOlKewxKOMbtdBb3kmYN-8" value="" style="shape=tableRow;horizontal=0;startSize=0;swimlaneHead=0;swimlaneBody=0;fillColor=none;collapsible=0;dropTarget=0;points=[[0,0.5],[1,0.5]];portConstraint=eastwest;top=0;left=0;right=0;bottom=0;" vertex="1" parent="ZOlKewxKOMbtdBb3kmYN-1">
          <mxGeometry y="90" width="180" height="30" as="geometry" />
        </mxCell>
        <mxCell id="ZOlKewxKOMbtdBb3kmYN-9" value="" style="shape=partialRectangle;connectable=0;fillColor=none;top=0;left=0;bottom=0;right=0;editable=1;overflow=hidden;whiteSpace=wrap;html=1;" vertex="1" parent="ZOlKewxKOMbtdBb3kmYN-8">
          <mxGeometry width="30" height="30" as="geometry">
            <mxRectangle width="30" height="30" as="alternateBounds" />
          </mxGeometry>
        </mxCell>
        <mxCell id="ZOlKewxKOMbtdBb3kmYN-10" value="dir_numero" style="shape=partialRectangle;connectable=0;fillColor=none;top=0;left=0;bottom=0;right=0;align=left;spacingLeft=6;overflow=hidden;whiteSpace=wrap;html=1;" vertex="1" parent="ZOlKewxKOMbtdBb3kmYN-8">
          <mxGeometry x="30" width="150" height="30" as="geometry">
            <mxRectangle width="150" height="30" as="alternateBounds" />
          </mxGeometry>
        </mxCell>
        <mxCell id="ZOlKewxKOMbtdBb3kmYN-11" value="" style="shape=tableRow;horizontal=0;startSize=0;swimlaneHead=0;swimlaneBody=0;fillColor=none;collapsible=0;dropTarget=0;points=[[0,0.5],[1,0.5]];portConstraint=eastwest;top=0;left=0;right=0;bottom=0;" vertex="1" parent="ZOlKewxKOMbtdBb3kmYN-1">
          <mxGeometry y="120" width="180" height="30" as="geometry" />
        </mxCell>
        <mxCell id="ZOlKewxKOMbtdBb3kmYN-12" value="" style="shape=partialRectangle;connectable=0;fillColor=none;top=0;left=0;bottom=0;right=0;editable=1;overflow=hidden;whiteSpace=wrap;html=1;" vertex="1" parent="ZOlKewxKOMbtdBb3kmYN-11">
          <mxGeometry width="30" height="30" as="geometry">
            <mxRectangle width="30" height="30" as="alternateBounds" />
          </mxGeometry>
        </mxCell>
        <mxCell id="ZOlKewxKOMbtdBb3kmYN-13" value="dir_comuna" style="shape=partialRectangle;connectable=0;fillColor=none;top=0;left=0;bottom=0;right=0;align=left;spacingLeft=6;overflow=hidden;whiteSpace=wrap;html=1;" vertex="1" parent="ZOlKewxKOMbtdBb3kmYN-11">
          <mxGeometry x="30" width="150" height="30" as="geometry">
            <mxRectangle width="150" height="30" as="alternateBounds" />
          </mxGeometry>
        </mxCell>
        <mxCell id="_YVkmsm1tt00Pj0YA5Dh-1" value="" style="shape=tableRow;horizontal=0;startSize=0;swimlaneHead=0;swimlaneBody=0;fillColor=none;collapsible=0;dropTarget=0;points=[[0,0.5],[1,0.5]];portConstraint=eastwest;top=0;left=0;right=0;bottom=0;" vertex="1" parent="ZOlKewxKOMbtdBb3kmYN-1">
          <mxGeometry y="150" width="180" height="30" as="geometry" />
        </mxCell>
        <mxCell id="_YVkmsm1tt00Pj0YA5Dh-2" value="" style="shape=partialRectangle;connectable=0;fillColor=none;top=0;left=0;bottom=0;right=0;editable=1;overflow=hidden;whiteSpace=wrap;html=1;" vertex="1" parent="_YVkmsm1tt00Pj0YA5Dh-1">
          <mxGeometry width="30" height="30" as="geometry">
            <mxRectangle width="30" height="30" as="alternateBounds" />
          </mxGeometry>
        </mxCell>
        <mxCell id="_YVkmsm1tt00Pj0YA5Dh-3" value="dir_ciudad" style="shape=partialRectangle;connectable=0;fillColor=none;top=0;left=0;bottom=0;right=0;align=left;spacingLeft=6;overflow=hidden;whiteSpace=wrap;html=1;" vertex="1" parent="_YVkmsm1tt00Pj0YA5Dh-1">
          <mxGeometry x="30" width="150" height="30" as="geometry">
            <mxRectangle width="150" height="30" as="alternateBounds" />
          </mxGeometry>
        </mxCell>
        <mxCell id="CsxaL73Rgp61plR30ZtX-1" value="cliente" style="shape=table;startSize=30;container=1;collapsible=1;childLayout=tableLayout;fixedRows=1;rowLines=0;fontStyle=1;align=center;resizeLast=1;html=1;" vertex="1" parent="1">
          <mxGeometry x="-460" y="170" width="180" height="240" as="geometry" />
        </mxCell>
        <mxCell id="CsxaL73Rgp61plR30ZtX-2" value="" style="shape=tableRow;horizontal=0;startSize=0;swimlaneHead=0;swimlaneBody=0;fillColor=none;collapsible=0;dropTarget=0;points=[[0,0.5],[1,0.5]];portConstraint=eastwest;top=0;left=0;right=0;bottom=1;" vertex="1" parent="CsxaL73Rgp61plR30ZtX-1">
          <mxGeometry y="30" width="180" height="30" as="geometry" />
        </mxCell>
        <mxCell id="CsxaL73Rgp61plR30ZtX-3" value="PK" style="shape=partialRectangle;connectable=0;fillColor=none;top=0;left=0;bottom=0;right=0;fontStyle=1;overflow=hidden;whiteSpace=wrap;html=1;" vertex="1" parent="CsxaL73Rgp61plR30ZtX-2">
          <mxGeometry width="30" height="30" as="geometry">
            <mxRectangle width="30" height="30" as="alternateBounds" />
          </mxGeometry>
        </mxCell>
        <mxCell id="CsxaL73Rgp61plR30ZtX-4" value="RUT_cliente" style="shape=partialRectangle;connectable=0;fillColor=none;top=0;left=0;bottom=0;right=0;align=left;spacingLeft=6;fontStyle=5;overflow=hidden;whiteSpace=wrap;html=1;" vertex="1" parent="CsxaL73Rgp61plR30ZtX-2">
          <mxGeometry x="30" width="150" height="30" as="geometry">
            <mxRectangle width="150" height="30" as="alternateBounds" />
          </mxGeometry>
        </mxCell>
        <mxCell id="CsxaL73Rgp61plR30ZtX-5" value="" style="shape=tableRow;horizontal=0;startSize=0;swimlaneHead=0;swimlaneBody=0;fillColor=none;collapsible=0;dropTarget=0;points=[[0,0.5],[1,0.5]];portConstraint=eastwest;top=0;left=0;right=0;bottom=0;" vertex="1" parent="CsxaL73Rgp61plR30ZtX-1">
          <mxGeometry y="60" width="180" height="30" as="geometry" />
        </mxCell>
        <mxCell id="CsxaL73Rgp61plR30ZtX-6" value="" style="shape=partialRectangle;connectable=0;fillColor=none;top=0;left=0;bottom=0;right=0;editable=1;overflow=hidden;whiteSpace=wrap;html=1;" vertex="1" parent="CsxaL73Rgp61plR30ZtX-5">
          <mxGeometry width="30" height="30" as="geometry">
            <mxRectangle width="30" height="30" as="alternateBounds" />
          </mxGeometry>
        </mxCell>
        <mxCell id="CsxaL73Rgp61plR30ZtX-7" value="Nombre_nombre" style="shape=partialRectangle;connectable=0;fillColor=none;top=0;left=0;bottom=0;right=0;align=left;spacingLeft=6;overflow=hidden;whiteSpace=wrap;html=1;" vertex="1" parent="CsxaL73Rgp61plR30ZtX-5">
          <mxGeometry x="30" width="150" height="30" as="geometry">
            <mxRectangle width="150" height="30" as="alternateBounds" />
          </mxGeometry>
        </mxCell>
        <mxCell id="CsxaL73Rgp61plR30ZtX-8" value="" style="shape=tableRow;horizontal=0;startSize=0;swimlaneHead=0;swimlaneBody=0;fillColor=none;collapsible=0;dropTarget=0;points=[[0,0.5],[1,0.5]];portConstraint=eastwest;top=0;left=0;right=0;bottom=0;" vertex="1" parent="CsxaL73Rgp61plR30ZtX-1">
          <mxGeometry y="90" width="180" height="30" as="geometry" />
        </mxCell>
        <mxCell id="CsxaL73Rgp61plR30ZtX-9" value="" style="shape=partialRectangle;connectable=0;fillColor=none;top=0;left=0;bottom=0;right=0;editable=1;overflow=hidden;whiteSpace=wrap;html=1;" vertex="1" parent="CsxaL73Rgp61plR30ZtX-8">
          <mxGeometry width="30" height="30" as="geometry">
            <mxRectangle width="30" height="30" as="alternateBounds" />
          </mxGeometry>
        </mxCell>
        <mxCell id="CsxaL73Rgp61plR30ZtX-10" value="nombre_apellido" style="shape=partialRectangle;connectable=0;fillColor=none;top=0;left=0;bottom=0;right=0;align=left;spacingLeft=6;overflow=hidden;whiteSpace=wrap;html=1;" vertex="1" parent="CsxaL73Rgp61plR30ZtX-8">
          <mxGeometry x="30" width="150" height="30" as="geometry">
            <mxRectangle width="150" height="30" as="alternateBounds" />
          </mxGeometry>
        </mxCell>
        <mxCell id="CsxaL73Rgp61plR30ZtX-11" value="" style="shape=tableRow;horizontal=0;startSize=0;swimlaneHead=0;swimlaneBody=0;fillColor=none;collapsible=0;dropTarget=0;points=[[0,0.5],[1,0.5]];portConstraint=eastwest;top=0;left=0;right=0;bottom=0;" vertex="1" parent="CsxaL73Rgp61plR30ZtX-1">
          <mxGeometry y="120" width="180" height="30" as="geometry" />
        </mxCell>
        <mxCell id="CsxaL73Rgp61plR30ZtX-12" value="" style="shape=partialRectangle;connectable=0;fillColor=none;top=0;left=0;bottom=0;right=0;editable=1;overflow=hidden;whiteSpace=wrap;html=1;" vertex="1" parent="CsxaL73Rgp61plR30ZtX-11">
          <mxGeometry width="30" height="30" as="geometry">
            <mxRectangle width="30" height="30" as="alternateBounds" />
          </mxGeometry>
        </mxCell>
        <mxCell id="CsxaL73Rgp61plR30ZtX-13" value="dir_calle" style="shape=partialRectangle;connectable=0;fillColor=none;top=0;left=0;bottom=0;right=0;align=left;spacingLeft=6;overflow=hidden;whiteSpace=wrap;html=1;" vertex="1" parent="CsxaL73Rgp61plR30ZtX-11">
          <mxGeometry x="30" width="150" height="30" as="geometry">
            <mxRectangle width="150" height="30" as="alternateBounds" />
          </mxGeometry>
        </mxCell>
        <mxCell id="pRqNUWwyMRKRv8VTV4v9-1" value="" style="shape=tableRow;horizontal=0;startSize=0;swimlaneHead=0;swimlaneBody=0;fillColor=none;collapsible=0;dropTarget=0;points=[[0,0.5],[1,0.5]];portConstraint=eastwest;top=0;left=0;right=0;bottom=0;" vertex="1" parent="CsxaL73Rgp61plR30ZtX-1">
          <mxGeometry y="150" width="180" height="30" as="geometry" />
        </mxCell>
        <mxCell id="pRqNUWwyMRKRv8VTV4v9-2" value="" style="shape=partialRectangle;connectable=0;fillColor=none;top=0;left=0;bottom=0;right=0;editable=1;overflow=hidden;whiteSpace=wrap;html=1;" vertex="1" parent="pRqNUWwyMRKRv8VTV4v9-1">
          <mxGeometry width="30" height="30" as="geometry">
            <mxRectangle width="30" height="30" as="alternateBounds" />
          </mxGeometry>
        </mxCell>
        <mxCell id="pRqNUWwyMRKRv8VTV4v9-3" value="dir_numero&lt;span style=&quot;white-space: pre;&quot;&gt;&#x9;&lt;/span&gt;" style="shape=partialRectangle;connectable=0;fillColor=none;top=0;left=0;bottom=0;right=0;align=left;spacingLeft=6;overflow=hidden;whiteSpace=wrap;html=1;" vertex="1" parent="pRqNUWwyMRKRv8VTV4v9-1">
          <mxGeometry x="30" width="150" height="30" as="geometry">
            <mxRectangle width="150" height="30" as="alternateBounds" />
          </mxGeometry>
        </mxCell>
        <mxCell id="pRqNUWwyMRKRv8VTV4v9-4" value="" style="shape=tableRow;horizontal=0;startSize=0;swimlaneHead=0;swimlaneBody=0;fillColor=none;collapsible=0;dropTarget=0;points=[[0,0.5],[1,0.5]];portConstraint=eastwest;top=0;left=0;right=0;bottom=0;" vertex="1" parent="CsxaL73Rgp61plR30ZtX-1">
          <mxGeometry y="180" width="180" height="30" as="geometry" />
        </mxCell>
        <mxCell id="pRqNUWwyMRKRv8VTV4v9-5" value="" style="shape=partialRectangle;connectable=0;fillColor=none;top=0;left=0;bottom=0;right=0;editable=1;overflow=hidden;whiteSpace=wrap;html=1;" vertex="1" parent="pRqNUWwyMRKRv8VTV4v9-4">
          <mxGeometry width="30" height="30" as="geometry">
            <mxRectangle width="30" height="30" as="alternateBounds" />
          </mxGeometry>
        </mxCell>
        <mxCell id="pRqNUWwyMRKRv8VTV4v9-6" value="dir_comuna" style="shape=partialRectangle;connectable=0;fillColor=none;top=0;left=0;bottom=0;right=0;align=left;spacingLeft=6;overflow=hidden;whiteSpace=wrap;html=1;" vertex="1" parent="pRqNUWwyMRKRv8VTV4v9-4">
          <mxGeometry x="30" width="150" height="30" as="geometry">
            <mxRectangle width="150" height="30" as="alternateBounds" />
          </mxGeometry>
        </mxCell>
        <mxCell id="pRqNUWwyMRKRv8VTV4v9-7" value="" style="shape=tableRow;horizontal=0;startSize=0;swimlaneHead=0;swimlaneBody=0;fillColor=none;collapsible=0;dropTarget=0;points=[[0,0.5],[1,0.5]];portConstraint=eastwest;top=0;left=0;right=0;bottom=0;" vertex="1" parent="CsxaL73Rgp61plR30ZtX-1">
          <mxGeometry y="210" width="180" height="30" as="geometry" />
        </mxCell>
        <mxCell id="pRqNUWwyMRKRv8VTV4v9-8" value="" style="shape=partialRectangle;connectable=0;fillColor=none;top=0;left=0;bottom=0;right=0;editable=1;overflow=hidden;whiteSpace=wrap;html=1;" vertex="1" parent="pRqNUWwyMRKRv8VTV4v9-7">
          <mxGeometry width="30" height="30" as="geometry">
            <mxRectangle width="30" height="30" as="alternateBounds" />
          </mxGeometry>
        </mxCell>
        <mxCell id="pRqNUWwyMRKRv8VTV4v9-9" value="dir_ciudad" style="shape=partialRectangle;connectable=0;fillColor=none;top=0;left=0;bottom=0;right=0;align=left;spacingLeft=6;overflow=hidden;whiteSpace=wrap;html=1;" vertex="1" parent="pRqNUWwyMRKRv8VTV4v9-7">
          <mxGeometry x="30" width="150" height="30" as="geometry">
            <mxRectangle width="150" height="30" as="alternateBounds" />
          </mxGeometry>
        </mxCell>
        <mxCell id="73vczBGqV7RY2HElODQv-1" value="rut_proveedores_cliente" style="shape=table;startSize=30;container=1;collapsible=1;childLayout=tableLayout;fixedRows=1;rowLines=0;fontStyle=1;align=center;resizeLast=1;html=1;" vertex="1" parent="1">
          <mxGeometry x="-130" y="10" width="180" height="130" as="geometry" />
        </mxCell>
        <mxCell id="73vczBGqV7RY2HElODQv-2" value="" style="shape=tableRow;horizontal=0;startSize=0;swimlaneHead=0;swimlaneBody=0;fillColor=none;collapsible=0;dropTarget=0;points=[[0,0.5],[1,0.5]];portConstraint=eastwest;top=0;left=0;right=0;bottom=1;" vertex="1" parent="73vczBGqV7RY2HElODQv-1">
          <mxGeometry y="30" width="180" height="30" as="geometry" />
        </mxCell>
        <mxCell id="73vczBGqV7RY2HElODQv-3" value="PK" style="shape=partialRectangle;connectable=0;fillColor=none;top=0;left=0;bottom=0;right=0;fontStyle=1;overflow=hidden;whiteSpace=wrap;html=1;" vertex="1" parent="73vczBGqV7RY2HElODQv-2">
          <mxGeometry width="30" height="30" as="geometry">
            <mxRectangle width="30" height="30" as="alternateBounds" />
          </mxGeometry>
        </mxCell>
        <mxCell id="73vczBGqV7RY2HElODQv-4" value="rut_proveedores_cliente" style="shape=partialRectangle;connectable=0;fillColor=none;top=0;left=0;bottom=0;right=0;align=left;spacingLeft=6;fontStyle=5;overflow=hidden;whiteSpace=wrap;html=1;" vertex="1" parent="73vczBGqV7RY2HElODQv-2">
          <mxGeometry x="30" width="150" height="30" as="geometry">
            <mxRectangle width="150" height="30" as="alternateBounds" />
          </mxGeometry>
        </mxCell>
        <mxCell id="73vczBGqV7RY2HElODQv-5" value="" style="shape=tableRow;horizontal=0;startSize=0;swimlaneHead=0;swimlaneBody=0;fillColor=none;collapsible=0;dropTarget=0;points=[[0,0.5],[1,0.5]];portConstraint=eastwest;top=0;left=0;right=0;bottom=0;" vertex="1" parent="73vczBGqV7RY2HElODQv-1">
          <mxGeometry y="60" width="180" height="40" as="geometry" />
        </mxCell>
        <mxCell id="73vczBGqV7RY2HElODQv-6" value="fk" style="shape=partialRectangle;connectable=0;fillColor=none;top=0;left=0;bottom=0;right=0;editable=1;overflow=hidden;whiteSpace=wrap;html=1;" vertex="1" parent="73vczBGqV7RY2HElODQv-5">
          <mxGeometry width="30" height="40" as="geometry">
            <mxRectangle width="30" height="40" as="alternateBounds" />
          </mxGeometry>
        </mxCell>
        <mxCell id="73vczBGqV7RY2HElODQv-7" value="rut_proveedores" style="shape=partialRectangle;connectable=0;fillColor=none;top=0;left=0;bottom=0;right=0;align=left;spacingLeft=6;overflow=hidden;whiteSpace=wrap;html=1;" vertex="1" parent="73vczBGqV7RY2HElODQv-5">
          <mxGeometry x="30" width="150" height="40" as="geometry">
            <mxRectangle width="150" height="40" as="alternateBounds" />
          </mxGeometry>
        </mxCell>
        <mxCell id="73vczBGqV7RY2HElODQv-8" value="" style="shape=tableRow;horizontal=0;startSize=0;swimlaneHead=0;swimlaneBody=0;fillColor=none;collapsible=0;dropTarget=0;points=[[0,0.5],[1,0.5]];portConstraint=eastwest;top=0;left=0;right=0;bottom=0;" vertex="1" parent="73vczBGqV7RY2HElODQv-1">
          <mxGeometry y="100" width="180" height="30" as="geometry" />
        </mxCell>
        <mxCell id="73vczBGqV7RY2HElODQv-9" value="fk" style="shape=partialRectangle;connectable=0;fillColor=none;top=0;left=0;bottom=0;right=0;editable=1;overflow=hidden;whiteSpace=wrap;html=1;" vertex="1" parent="73vczBGqV7RY2HElODQv-8">
          <mxGeometry width="30" height="30" as="geometry">
            <mxRectangle width="30" height="30" as="alternateBounds" />
          </mxGeometry>
        </mxCell>
        <mxCell id="73vczBGqV7RY2HElODQv-10" value="rut_cliente" style="shape=partialRectangle;connectable=0;fillColor=none;top=0;left=0;bottom=0;right=0;align=left;spacingLeft=6;overflow=hidden;whiteSpace=wrap;html=1;" vertex="1" parent="73vczBGqV7RY2HElODQv-8">
          <mxGeometry x="30" width="150" height="30" as="geometry">
            <mxRectangle width="150" height="30" as="alternateBounds" />
          </mxGeometry>
        </mxCell>
        <mxCell id="LXgt0W16GYGM5Zkwtoe5-1" value="producto" style="shape=table;startSize=30;container=1;collapsible=1;childLayout=tableLayout;fixedRows=1;rowLines=0;fontStyle=1;align=center;resizeLast=1;html=1;" vertex="1" parent="1">
          <mxGeometry x="-180" y="290" width="180" height="150" as="geometry" />
        </mxCell>
        <mxCell id="LXgt0W16GYGM5Zkwtoe5-2" value="" style="shape=tableRow;horizontal=0;startSize=0;swimlaneHead=0;swimlaneBody=0;fillColor=none;collapsible=0;dropTarget=0;points=[[0,0.5],[1,0.5]];portConstraint=eastwest;top=0;left=0;right=0;bottom=1;" vertex="1" parent="LXgt0W16GYGM5Zkwtoe5-1">
          <mxGeometry y="30" width="180" height="30" as="geometry" />
        </mxCell>
        <mxCell id="LXgt0W16GYGM5Zkwtoe5-3" value="PK" style="shape=partialRectangle;connectable=0;fillColor=none;top=0;left=0;bottom=0;right=0;fontStyle=1;overflow=hidden;whiteSpace=wrap;html=1;" vertex="1" parent="LXgt0W16GYGM5Zkwtoe5-2">
          <mxGeometry width="30" height="30" as="geometry">
            <mxRectangle width="30" height="30" as="alternateBounds" />
          </mxGeometry>
        </mxCell>
        <mxCell id="LXgt0W16GYGM5Zkwtoe5-4" value="ID_producto" style="shape=partialRectangle;connectable=0;fillColor=none;top=0;left=0;bottom=0;right=0;align=left;spacingLeft=6;fontStyle=5;overflow=hidden;whiteSpace=wrap;html=1;" vertex="1" parent="LXgt0W16GYGM5Zkwtoe5-2">
          <mxGeometry x="30" width="150" height="30" as="geometry">
            <mxRectangle width="150" height="30" as="alternateBounds" />
          </mxGeometry>
        </mxCell>
        <mxCell id="LXgt0W16GYGM5Zkwtoe5-5" value="" style="shape=tableRow;horizontal=0;startSize=0;swimlaneHead=0;swimlaneBody=0;fillColor=none;collapsible=0;dropTarget=0;points=[[0,0.5],[1,0.5]];portConstraint=eastwest;top=0;left=0;right=0;bottom=0;" vertex="1" parent="LXgt0W16GYGM5Zkwtoe5-1">
          <mxGeometry y="60" width="180" height="30" as="geometry" />
        </mxCell>
        <mxCell id="LXgt0W16GYGM5Zkwtoe5-6" value="" style="shape=partialRectangle;connectable=0;fillColor=none;top=0;left=0;bottom=0;right=0;editable=1;overflow=hidden;whiteSpace=wrap;html=1;" vertex="1" parent="LXgt0W16GYGM5Zkwtoe5-5">
          <mxGeometry width="30" height="30" as="geometry">
            <mxRectangle width="30" height="30" as="alternateBounds" />
          </mxGeometry>
        </mxCell>
        <mxCell id="LXgt0W16GYGM5Zkwtoe5-7" value="nombre" style="shape=partialRectangle;connectable=0;fillColor=none;top=0;left=0;bottom=0;right=0;align=left;spacingLeft=6;overflow=hidden;whiteSpace=wrap;html=1;" vertex="1" parent="LXgt0W16GYGM5Zkwtoe5-5">
          <mxGeometry x="30" width="150" height="30" as="geometry">
            <mxRectangle width="150" height="30" as="alternateBounds" />
          </mxGeometry>
        </mxCell>
        <mxCell id="LXgt0W16GYGM5Zkwtoe5-8" value="" style="shape=tableRow;horizontal=0;startSize=0;swimlaneHead=0;swimlaneBody=0;fillColor=none;collapsible=0;dropTarget=0;points=[[0,0.5],[1,0.5]];portConstraint=eastwest;top=0;left=0;right=0;bottom=0;" vertex="1" parent="LXgt0W16GYGM5Zkwtoe5-1">
          <mxGeometry y="90" width="180" height="30" as="geometry" />
        </mxCell>
        <mxCell id="LXgt0W16GYGM5Zkwtoe5-9" value="" style="shape=partialRectangle;connectable=0;fillColor=none;top=0;left=0;bottom=0;right=0;editable=1;overflow=hidden;whiteSpace=wrap;html=1;" vertex="1" parent="LXgt0W16GYGM5Zkwtoe5-8">
          <mxGeometry width="30" height="30" as="geometry">
            <mxRectangle width="30" height="30" as="alternateBounds" />
          </mxGeometry>
        </mxCell>
        <mxCell id="LXgt0W16GYGM5Zkwtoe5-10" value="precio actual" style="shape=partialRectangle;connectable=0;fillColor=none;top=0;left=0;bottom=0;right=0;align=left;spacingLeft=6;overflow=hidden;whiteSpace=wrap;html=1;" vertex="1" parent="LXgt0W16GYGM5Zkwtoe5-8">
          <mxGeometry x="30" width="150" height="30" as="geometry">
            <mxRectangle width="150" height="30" as="alternateBounds" />
          </mxGeometry>
        </mxCell>
        <mxCell id="hJ6_EzLisw_Gr4evm64f-2" value="" style="shape=tableRow;horizontal=0;startSize=0;swimlaneHead=0;swimlaneBody=0;fillColor=none;collapsible=0;dropTarget=0;points=[[0,0.5],[1,0.5]];portConstraint=eastwest;top=0;left=0;right=0;bottom=0;" vertex="1" parent="LXgt0W16GYGM5Zkwtoe5-1">
          <mxGeometry y="120" width="180" height="30" as="geometry" />
        </mxCell>
        <mxCell id="hJ6_EzLisw_Gr4evm64f-3" value="" style="shape=partialRectangle;connectable=0;fillColor=none;top=0;left=0;bottom=0;right=0;editable=1;overflow=hidden;whiteSpace=wrap;html=1;" vertex="1" parent="hJ6_EzLisw_Gr4evm64f-2">
          <mxGeometry width="30" height="30" as="geometry">
            <mxRectangle width="30" height="30" as="alternateBounds" />
          </mxGeometry>
        </mxCell>
        <mxCell id="hJ6_EzLisw_Gr4evm64f-4" value="RUT_CLIENTE" style="shape=partialRectangle;connectable=0;fillColor=none;top=0;left=0;bottom=0;right=0;align=left;spacingLeft=6;overflow=hidden;whiteSpace=wrap;html=1;" vertex="1" parent="hJ6_EzLisw_Gr4evm64f-2">
          <mxGeometry x="30" width="150" height="30" as="geometry">
            <mxRectangle width="150" height="30" as="alternateBounds" />
          </mxGeometry>
        </mxCell>
        <mxCell id="EGORjmV4EV4zn_5RAgB7-1" value="categoria" style="shape=table;startSize=30;container=1;collapsible=1;childLayout=tableLayout;fixedRows=1;rowLines=0;fontStyle=1;align=center;resizeLast=1;html=1;" vertex="1" parent="1">
          <mxGeometry x="210" y="100" width="180" height="150" as="geometry" />
        </mxCell>
        <mxCell id="EGORjmV4EV4zn_5RAgB7-2" value="" style="shape=tableRow;horizontal=0;startSize=0;swimlaneHead=0;swimlaneBody=0;fillColor=none;collapsible=0;dropTarget=0;points=[[0,0.5],[1,0.5]];portConstraint=eastwest;top=0;left=0;right=0;bottom=1;" vertex="1" parent="EGORjmV4EV4zn_5RAgB7-1">
          <mxGeometry y="30" width="180" height="30" as="geometry" />
        </mxCell>
        <mxCell id="EGORjmV4EV4zn_5RAgB7-3" value="PK" style="shape=partialRectangle;connectable=0;fillColor=none;top=0;left=0;bottom=0;right=0;fontStyle=1;overflow=hidden;whiteSpace=wrap;html=1;" vertex="1" parent="EGORjmV4EV4zn_5RAgB7-2">
          <mxGeometry width="30" height="30" as="geometry">
            <mxRectangle width="30" height="30" as="alternateBounds" />
          </mxGeometry>
        </mxCell>
        <mxCell id="EGORjmV4EV4zn_5RAgB7-4" value="ID_categoria" style="shape=partialRectangle;connectable=0;fillColor=none;top=0;left=0;bottom=0;right=0;align=left;spacingLeft=6;fontStyle=5;overflow=hidden;whiteSpace=wrap;html=1;" vertex="1" parent="EGORjmV4EV4zn_5RAgB7-2">
          <mxGeometry x="30" width="150" height="30" as="geometry">
            <mxRectangle width="150" height="30" as="alternateBounds" />
          </mxGeometry>
        </mxCell>
        <mxCell id="EGORjmV4EV4zn_5RAgB7-5" value="" style="shape=tableRow;horizontal=0;startSize=0;swimlaneHead=0;swimlaneBody=0;fillColor=none;collapsible=0;dropTarget=0;points=[[0,0.5],[1,0.5]];portConstraint=eastwest;top=0;left=0;right=0;bottom=0;" vertex="1" parent="EGORjmV4EV4zn_5RAgB7-1">
          <mxGeometry y="60" width="180" height="30" as="geometry" />
        </mxCell>
        <mxCell id="EGORjmV4EV4zn_5RAgB7-6" value="" style="shape=partialRectangle;connectable=0;fillColor=none;top=0;left=0;bottom=0;right=0;editable=1;overflow=hidden;whiteSpace=wrap;html=1;" vertex="1" parent="EGORjmV4EV4zn_5RAgB7-5">
          <mxGeometry width="30" height="30" as="geometry">
            <mxRectangle width="30" height="30" as="alternateBounds" />
          </mxGeometry>
        </mxCell>
        <mxCell id="EGORjmV4EV4zn_5RAgB7-7" value="nombre" style="shape=partialRectangle;connectable=0;fillColor=none;top=0;left=0;bottom=0;right=0;align=left;spacingLeft=6;overflow=hidden;whiteSpace=wrap;html=1;" vertex="1" parent="EGORjmV4EV4zn_5RAgB7-5">
          <mxGeometry x="30" width="150" height="30" as="geometry">
            <mxRectangle width="150" height="30" as="alternateBounds" />
          </mxGeometry>
        </mxCell>
        <mxCell id="EGORjmV4EV4zn_5RAgB7-8" value="" style="shape=tableRow;horizontal=0;startSize=0;swimlaneHead=0;swimlaneBody=0;fillColor=none;collapsible=0;dropTarget=0;points=[[0,0.5],[1,0.5]];portConstraint=eastwest;top=0;left=0;right=0;bottom=0;" vertex="1" parent="EGORjmV4EV4zn_5RAgB7-1">
          <mxGeometry y="90" width="180" height="30" as="geometry" />
        </mxCell>
        <mxCell id="EGORjmV4EV4zn_5RAgB7-9" value="" style="shape=partialRectangle;connectable=0;fillColor=none;top=0;left=0;bottom=0;right=0;editable=1;overflow=hidden;whiteSpace=wrap;html=1;" vertex="1" parent="EGORjmV4EV4zn_5RAgB7-8">
          <mxGeometry width="30" height="30" as="geometry">
            <mxRectangle width="30" height="30" as="alternateBounds" />
          </mxGeometry>
        </mxCell>
        <mxCell id="EGORjmV4EV4zn_5RAgB7-10" value="descripcion" style="shape=partialRectangle;connectable=0;fillColor=none;top=0;left=0;bottom=0;right=0;align=left;spacingLeft=6;overflow=hidden;whiteSpace=wrap;html=1;" vertex="1" parent="EGORjmV4EV4zn_5RAgB7-8">
          <mxGeometry x="30" width="150" height="30" as="geometry">
            <mxRectangle width="150" height="30" as="alternateBounds" />
          </mxGeometry>
        </mxCell>
        <mxCell id="2vDar_NQh_QPVnQKHMWu-2" value="" style="shape=tableRow;horizontal=0;startSize=0;swimlaneHead=0;swimlaneBody=0;fillColor=none;collapsible=0;dropTarget=0;points=[[0,0.5],[1,0.5]];portConstraint=eastwest;top=0;left=0;right=0;bottom=0;" vertex="1" parent="EGORjmV4EV4zn_5RAgB7-1">
          <mxGeometry y="120" width="180" height="30" as="geometry" />
        </mxCell>
        <mxCell id="2vDar_NQh_QPVnQKHMWu-3" value="fk" style="shape=partialRectangle;connectable=0;fillColor=none;top=0;left=0;bottom=0;right=0;editable=1;overflow=hidden;whiteSpace=wrap;html=1;" vertex="1" parent="2vDar_NQh_QPVnQKHMWu-2">
          <mxGeometry width="30" height="30" as="geometry">
            <mxRectangle width="30" height="30" as="alternateBounds" />
          </mxGeometry>
        </mxCell>
        <mxCell id="2vDar_NQh_QPVnQKHMWu-4" value="Id_producto" style="shape=partialRectangle;connectable=0;fillColor=none;top=0;left=0;bottom=0;right=0;align=left;spacingLeft=6;overflow=hidden;whiteSpace=wrap;html=1;" vertex="1" parent="2vDar_NQh_QPVnQKHMWu-2">
          <mxGeometry x="30" width="150" height="30" as="geometry">
            <mxRectangle width="150" height="30" as="alternateBounds" />
          </mxGeometry>
        </mxCell>
        <mxCell id="iVyJw7Sci1Fk2hNMB0Cz-1" value="ventas" style="shape=table;startSize=30;container=1;collapsible=1;childLayout=tableLayout;fixedRows=1;rowLines=0;fontStyle=1;align=center;resizeLast=1;html=1;" vertex="1" parent="1">
          <mxGeometry x="-180" y="500" width="180" height="210" as="geometry" />
        </mxCell>
        <mxCell id="iVyJw7Sci1Fk2hNMB0Cz-2" value="" style="shape=tableRow;horizontal=0;startSize=0;swimlaneHead=0;swimlaneBody=0;fillColor=none;collapsible=0;dropTarget=0;points=[[0,0.5],[1,0.5]];portConstraint=eastwest;top=0;left=0;right=0;bottom=1;" vertex="1" parent="iVyJw7Sci1Fk2hNMB0Cz-1">
          <mxGeometry y="30" width="180" height="30" as="geometry" />
        </mxCell>
        <mxCell id="iVyJw7Sci1Fk2hNMB0Cz-3" value="PK" style="shape=partialRectangle;connectable=0;fillColor=none;top=0;left=0;bottom=0;right=0;fontStyle=1;overflow=hidden;whiteSpace=wrap;html=1;" vertex="1" parent="iVyJw7Sci1Fk2hNMB0Cz-2">
          <mxGeometry width="30" height="30" as="geometry">
            <mxRectangle width="30" height="30" as="alternateBounds" />
          </mxGeometry>
        </mxCell>
        <mxCell id="iVyJw7Sci1Fk2hNMB0Cz-4" value="ID_ventas" style="shape=partialRectangle;connectable=0;fillColor=none;top=0;left=0;bottom=0;right=0;align=left;spacingLeft=6;fontStyle=5;overflow=hidden;whiteSpace=wrap;html=1;" vertex="1" parent="iVyJw7Sci1Fk2hNMB0Cz-2">
          <mxGeometry x="30" width="150" height="30" as="geometry">
            <mxRectangle width="150" height="30" as="alternateBounds" />
          </mxGeometry>
        </mxCell>
        <mxCell id="iVyJw7Sci1Fk2hNMB0Cz-5" value="" style="shape=tableRow;horizontal=0;startSize=0;swimlaneHead=0;swimlaneBody=0;fillColor=none;collapsible=0;dropTarget=0;points=[[0,0.5],[1,0.5]];portConstraint=eastwest;top=0;left=0;right=0;bottom=0;" vertex="1" parent="iVyJw7Sci1Fk2hNMB0Cz-1">
          <mxGeometry y="60" width="180" height="30" as="geometry" />
        </mxCell>
        <mxCell id="iVyJw7Sci1Fk2hNMB0Cz-6" value="" style="shape=partialRectangle;connectable=0;fillColor=none;top=0;left=0;bottom=0;right=0;editable=1;overflow=hidden;whiteSpace=wrap;html=1;" vertex="1" parent="iVyJw7Sci1Fk2hNMB0Cz-5">
          <mxGeometry width="30" height="30" as="geometry">
            <mxRectangle width="30" height="30" as="alternateBounds" />
          </mxGeometry>
        </mxCell>
        <mxCell id="iVyJw7Sci1Fk2hNMB0Cz-7" value="nombre_producto" style="shape=partialRectangle;connectable=0;fillColor=none;top=0;left=0;bottom=0;right=0;align=left;spacingLeft=6;overflow=hidden;whiteSpace=wrap;html=1;" vertex="1" parent="iVyJw7Sci1Fk2hNMB0Cz-5">
          <mxGeometry x="30" width="150" height="30" as="geometry">
            <mxRectangle width="150" height="30" as="alternateBounds" />
          </mxGeometry>
        </mxCell>
        <mxCell id="iVyJw7Sci1Fk2hNMB0Cz-8" value="" style="shape=tableRow;horizontal=0;startSize=0;swimlaneHead=0;swimlaneBody=0;fillColor=none;collapsible=0;dropTarget=0;points=[[0,0.5],[1,0.5]];portConstraint=eastwest;top=0;left=0;right=0;bottom=0;" vertex="1" parent="iVyJw7Sci1Fk2hNMB0Cz-1">
          <mxGeometry y="90" width="180" height="30" as="geometry" />
        </mxCell>
        <mxCell id="iVyJw7Sci1Fk2hNMB0Cz-9" value="" style="shape=partialRectangle;connectable=0;fillColor=none;top=0;left=0;bottom=0;right=0;editable=1;overflow=hidden;whiteSpace=wrap;html=1;" vertex="1" parent="iVyJw7Sci1Fk2hNMB0Cz-8">
          <mxGeometry width="30" height="30" as="geometry">
            <mxRectangle width="30" height="30" as="alternateBounds" />
          </mxGeometry>
        </mxCell>
        <mxCell id="iVyJw7Sci1Fk2hNMB0Cz-10" value="fecha_dia" style="shape=partialRectangle;connectable=0;fillColor=none;top=0;left=0;bottom=0;right=0;align=left;spacingLeft=6;overflow=hidden;whiteSpace=wrap;html=1;" vertex="1" parent="iVyJw7Sci1Fk2hNMB0Cz-8">
          <mxGeometry x="30" width="150" height="30" as="geometry">
            <mxRectangle width="150" height="30" as="alternateBounds" />
          </mxGeometry>
        </mxCell>
        <mxCell id="jflzXP2TGOSrfxzn173h-1" value="" style="shape=tableRow;horizontal=0;startSize=0;swimlaneHead=0;swimlaneBody=0;fillColor=none;collapsible=0;dropTarget=0;points=[[0,0.5],[1,0.5]];portConstraint=eastwest;top=0;left=0;right=0;bottom=0;" vertex="1" parent="iVyJw7Sci1Fk2hNMB0Cz-1">
          <mxGeometry y="120" width="180" height="30" as="geometry" />
        </mxCell>
        <mxCell id="jflzXP2TGOSrfxzn173h-2" value="" style="shape=partialRectangle;connectable=0;fillColor=none;top=0;left=0;bottom=0;right=0;editable=1;overflow=hidden;whiteSpace=wrap;html=1;" vertex="1" parent="jflzXP2TGOSrfxzn173h-1">
          <mxGeometry width="30" height="30" as="geometry">
            <mxRectangle width="30" height="30" as="alternateBounds" />
          </mxGeometry>
        </mxCell>
        <mxCell id="jflzXP2TGOSrfxzn173h-3" value="fecha_mes" style="shape=partialRectangle;connectable=0;fillColor=none;top=0;left=0;bottom=0;right=0;align=left;spacingLeft=6;overflow=hidden;whiteSpace=wrap;html=1;" vertex="1" parent="jflzXP2TGOSrfxzn173h-1">
          <mxGeometry x="30" width="150" height="30" as="geometry">
            <mxRectangle width="150" height="30" as="alternateBounds" />
          </mxGeometry>
        </mxCell>
        <mxCell id="jflzXP2TGOSrfxzn173h-4" value="" style="shape=tableRow;horizontal=0;startSize=0;swimlaneHead=0;swimlaneBody=0;fillColor=none;collapsible=0;dropTarget=0;points=[[0,0.5],[1,0.5]];portConstraint=eastwest;top=0;left=0;right=0;bottom=0;" vertex="1" parent="iVyJw7Sci1Fk2hNMB0Cz-1">
          <mxGeometry y="150" width="180" height="30" as="geometry" />
        </mxCell>
        <mxCell id="jflzXP2TGOSrfxzn173h-5" value="" style="shape=partialRectangle;connectable=0;fillColor=none;top=0;left=0;bottom=0;right=0;editable=1;overflow=hidden;whiteSpace=wrap;html=1;" vertex="1" parent="jflzXP2TGOSrfxzn173h-4">
          <mxGeometry width="30" height="30" as="geometry">
            <mxRectangle width="30" height="30" as="alternateBounds" />
          </mxGeometry>
        </mxCell>
        <mxCell id="jflzXP2TGOSrfxzn173h-6" value="fecha_año" style="shape=partialRectangle;connectable=0;fillColor=none;top=0;left=0;bottom=0;right=0;align=left;spacingLeft=6;overflow=hidden;whiteSpace=wrap;html=1;" vertex="1" parent="jflzXP2TGOSrfxzn173h-4">
          <mxGeometry x="30" width="150" height="30" as="geometry">
            <mxRectangle width="150" height="30" as="alternateBounds" />
          </mxGeometry>
        </mxCell>
        <mxCell id="Dtt5txvxTQvf5DxAYthw-1" value="" style="shape=tableRow;horizontal=0;startSize=0;swimlaneHead=0;swimlaneBody=0;fillColor=none;collapsible=0;dropTarget=0;points=[[0,0.5],[1,0.5]];portConstraint=eastwest;top=0;left=0;right=0;bottom=0;" vertex="1" parent="iVyJw7Sci1Fk2hNMB0Cz-1">
          <mxGeometry y="180" width="180" height="30" as="geometry" />
        </mxCell>
        <mxCell id="Dtt5txvxTQvf5DxAYthw-2" value="" style="shape=partialRectangle;connectable=0;fillColor=none;top=0;left=0;bottom=0;right=0;editable=1;overflow=hidden;whiteSpace=wrap;html=1;" vertex="1" parent="Dtt5txvxTQvf5DxAYthw-1">
          <mxGeometry width="30" height="30" as="geometry">
            <mxRectangle width="30" height="30" as="alternateBounds" />
          </mxGeometry>
        </mxCell>
        <mxCell id="Dtt5txvxTQvf5DxAYthw-3" value="fecha_hora" style="shape=partialRectangle;connectable=0;fillColor=none;top=0;left=0;bottom=0;right=0;align=left;spacingLeft=6;overflow=hidden;whiteSpace=wrap;html=1;" vertex="1" parent="Dtt5txvxTQvf5DxAYthw-1">
          <mxGeometry x="30" width="150" height="30" as="geometry">
            <mxRectangle width="150" height="30" as="alternateBounds" />
          </mxGeometry>
        </mxCell>
        <mxCell id="N-FEcICObE0HiABaTbCy-1" value="ID_VENTAS_PRODUCTO" style="shape=table;startSize=30;container=1;collapsible=1;childLayout=tableLayout;fixedRows=1;rowLines=0;fontStyle=1;align=center;resizeLast=1;html=1;" vertex="1" parent="1">
          <mxGeometry x="90" y="340" width="180" height="120" as="geometry" />
        </mxCell>
        <mxCell id="N-FEcICObE0HiABaTbCy-2" value="" style="shape=tableRow;horizontal=0;startSize=0;swimlaneHead=0;swimlaneBody=0;fillColor=none;collapsible=0;dropTarget=0;points=[[0,0.5],[1,0.5]];portConstraint=eastwest;top=0;left=0;right=0;bottom=1;" vertex="1" parent="N-FEcICObE0HiABaTbCy-1">
          <mxGeometry y="30" width="180" height="30" as="geometry" />
        </mxCell>
        <mxCell id="N-FEcICObE0HiABaTbCy-3" value="PK" style="shape=partialRectangle;connectable=0;fillColor=none;top=0;left=0;bottom=0;right=0;fontStyle=1;overflow=hidden;whiteSpace=wrap;html=1;" vertex="1" parent="N-FEcICObE0HiABaTbCy-2">
          <mxGeometry width="30" height="30" as="geometry">
            <mxRectangle width="30" height="30" as="alternateBounds" />
          </mxGeometry>
        </mxCell>
        <mxCell id="N-FEcICObE0HiABaTbCy-4" value="ID_VENTAS_PRODUCTO" style="shape=partialRectangle;connectable=0;fillColor=none;top=0;left=0;bottom=0;right=0;align=left;spacingLeft=6;fontStyle=5;overflow=hidden;whiteSpace=wrap;html=1;" vertex="1" parent="N-FEcICObE0HiABaTbCy-2">
          <mxGeometry x="30" width="150" height="30" as="geometry">
            <mxRectangle width="150" height="30" as="alternateBounds" />
          </mxGeometry>
        </mxCell>
        <mxCell id="N-FEcICObE0HiABaTbCy-5" value="" style="shape=tableRow;horizontal=0;startSize=0;swimlaneHead=0;swimlaneBody=0;fillColor=none;collapsible=0;dropTarget=0;points=[[0,0.5],[1,0.5]];portConstraint=eastwest;top=0;left=0;right=0;bottom=0;" vertex="1" parent="N-FEcICObE0HiABaTbCy-1">
          <mxGeometry y="60" width="180" height="30" as="geometry" />
        </mxCell>
        <mxCell id="N-FEcICObE0HiABaTbCy-6" value="fk" style="shape=partialRectangle;connectable=0;fillColor=none;top=0;left=0;bottom=0;right=0;editable=1;overflow=hidden;whiteSpace=wrap;html=1;" vertex="1" parent="N-FEcICObE0HiABaTbCy-5">
          <mxGeometry width="30" height="30" as="geometry">
            <mxRectangle width="30" height="30" as="alternateBounds" />
          </mxGeometry>
        </mxCell>
        <mxCell id="N-FEcICObE0HiABaTbCy-7" value="ID_VENTAS" style="shape=partialRectangle;connectable=0;fillColor=none;top=0;left=0;bottom=0;right=0;align=left;spacingLeft=6;overflow=hidden;whiteSpace=wrap;html=1;" vertex="1" parent="N-FEcICObE0HiABaTbCy-5">
          <mxGeometry x="30" width="150" height="30" as="geometry">
            <mxRectangle width="150" height="30" as="alternateBounds" />
          </mxGeometry>
        </mxCell>
        <mxCell id="N-FEcICObE0HiABaTbCy-8" value="" style="shape=tableRow;horizontal=0;startSize=0;swimlaneHead=0;swimlaneBody=0;fillColor=none;collapsible=0;dropTarget=0;points=[[0,0.5],[1,0.5]];portConstraint=eastwest;top=0;left=0;right=0;bottom=0;" vertex="1" parent="N-FEcICObE0HiABaTbCy-1">
          <mxGeometry y="90" width="180" height="30" as="geometry" />
        </mxCell>
        <mxCell id="N-FEcICObE0HiABaTbCy-9" value="fk" style="shape=partialRectangle;connectable=0;fillColor=none;top=0;left=0;bottom=0;right=0;editable=1;overflow=hidden;whiteSpace=wrap;html=1;" vertex="1" parent="N-FEcICObE0HiABaTbCy-8">
          <mxGeometry width="30" height="30" as="geometry">
            <mxRectangle width="30" height="30" as="alternateBounds" />
          </mxGeometry>
        </mxCell>
        <mxCell id="N-FEcICObE0HiABaTbCy-10" value="ID_PRODUCTO" style="shape=partialRectangle;connectable=0;fillColor=none;top=0;left=0;bottom=0;right=0;align=left;spacingLeft=6;overflow=hidden;whiteSpace=wrap;html=1;" vertex="1" parent="N-FEcICObE0HiABaTbCy-8">
          <mxGeometry x="30" width="150" height="30" as="geometry">
            <mxRectangle width="150" height="30" as="alternateBounds" />
          </mxGeometry>
        </mxCell>
        <mxCell id="aPVTPnKIXHBmdjxIGkHa-1" value="" style="edgeStyle=entityRelationEdgeStyle;fontSize=12;html=1;endArrow=ERoneToMany;rounded=0;" edge="1" parent="1" source="ZOlKewxKOMbtdBb3kmYN-2" target="73vczBGqV7RY2HElODQv-5">
          <mxGeometry width="100" height="100" relative="1" as="geometry">
            <mxPoint x="-230" as="sourcePoint" />
            <mxPoint x="-130" y="-100" as="targetPoint" />
          </mxGeometry>
        </mxCell>
        <mxCell id="aPVTPnKIXHBmdjxIGkHa-2" value="" style="edgeStyle=entityRelationEdgeStyle;fontSize=12;html=1;endArrow=ERoneToMany;rounded=0;" edge="1" parent="1" source="CsxaL73Rgp61plR30ZtX-2" target="73vczBGqV7RY2HElODQv-8">
          <mxGeometry width="100" height="100" relative="1" as="geometry">
            <mxPoint x="50" y="350" as="sourcePoint" />
            <mxPoint x="150" y="250" as="targetPoint" />
          </mxGeometry>
        </mxCell>
        <mxCell id="hJ6_EzLisw_Gr4evm64f-1" value="" style="edgeStyle=entityRelationEdgeStyle;fontSize=12;html=1;endArrow=ERoneToMany;rounded=0;" edge="1" parent="1" source="CsxaL73Rgp61plR30ZtX-2" target="hJ6_EzLisw_Gr4evm64f-2">
          <mxGeometry width="100" height="100" relative="1" as="geometry">
            <mxPoint x="50" y="350" as="sourcePoint" />
            <mxPoint x="150" y="250" as="targetPoint" />
          </mxGeometry>
        </mxCell>
        <mxCell id="C8FmG6xRp-YuaXNL5SQH-1" value="" style="edgeStyle=entityRelationEdgeStyle;fontSize=12;html=1;endArrow=ERoneToMany;rounded=0;" edge="1" parent="1" source="LXgt0W16GYGM5Zkwtoe5-2" target="N-FEcICObE0HiABaTbCy-8">
          <mxGeometry width="100" height="100" relative="1" as="geometry">
            <mxPoint x="50" y="415" as="sourcePoint" />
            <mxPoint x="150" y="315" as="targetPoint" />
          </mxGeometry>
        </mxCell>
        <mxCell id="C8FmG6xRp-YuaXNL5SQH-3" value="" style="edgeStyle=entityRelationEdgeStyle;fontSize=12;html=1;endArrow=ERoneToMany;rounded=0;" edge="1" parent="1" source="iVyJw7Sci1Fk2hNMB0Cz-2" target="N-FEcICObE0HiABaTbCy-5">
          <mxGeometry width="100" height="100" relative="1" as="geometry">
            <mxPoint x="110" y="560" as="sourcePoint" />
            <mxPoint x="210" y="460" as="targetPoint" />
          </mxGeometry>
        </mxCell>
        <mxCell id="2vDar_NQh_QPVnQKHMWu-1" value="" style="edgeStyle=entityRelationEdgeStyle;fontSize=12;html=1;endArrow=ERoneToMany;rounded=0;" edge="1" parent="1" source="LXgt0W16GYGM5Zkwtoe5-2" target="2vDar_NQh_QPVnQKHMWu-2">
          <mxGeometry width="100" height="100" relative="1" as="geometry">
            <mxPoint x="10" y="320" as="sourcePoint" />
            <mxPoint x="110" y="220" as="targetPoint" />
          </mxGeometry>
        </mxCell>
      </root>
    </mxGraphModel>
  </diagram>
</mxfile>
